<svg xmlns="http://www.w3.org/2000/svg" width="145" viewBox="0 0 174.5423 61.3926"><defs><style>.a{fill:#fff;}.b{fill:#900;}</style></defs><path class="a" d="M56.3164,20.7778c-11.291-6.893-29.083-6.48-40.5039,0V38.8506c-.1367,9.7344,6.1309,18.7988,14.6094,22.9873a25.3935,25.3935,0,0,0,5.6445,2.0371,25.3865,25.3865,0,0,0,5.6416-2.0371c8.4756-4.1856,14.7461-13.2529,14.6065-22.9873Z" transform="translate(-15.8102 -15.7617)"/><path class="b" d="M49.7617,55.6494,41.2363,16.0117c-.3574-.0361-.7177-.0576-1.0761-.0854l7.1621,42.14A26.7641,26.7641,0,0,0,49.7617,55.6494Z" transform="translate(-15.8102 -15.7617)"/><path class="b" d="M56.2754,40.2949,46.4336,16.8735c-.377-.0869-.7578-.16-1.1387-.2348L55.7266,44.292A23.0717,23.0717,0,0,0,56.2754,40.2949Z" transform="translate(-15.8102 -15.7617)"/><path class="b" d="M41.708,61.8359c.6436-.3183,1.27-.6738,1.8867-1.0459L38.708,15.8164c-.3848-.0181-.77-.0156-1.1582-.0254l2.9639,46.5977C40.9092,62.2139,41.3037,62.0352,41.708,61.8359Z" transform="translate(-15.8102 -15.7617)"/><path class="b" d="M54.1611,48.8936,43.79,16.355c-.3623-.0591-.7275-.105-1.0908-.1553l9.8291,35.75A25.9013,25.9013,0,0,0,54.1611,48.8936Z" transform="translate(-15.8102 -15.7617)"/><path class="b" d="M56.3174,20.7754a32.4976,32.4976,0,0,0-8.291-3.4863l8.2881,17.3623Z" transform="translate(-15.8102 -15.7617)"/><path class="b" d="M15.8125,20.7754V38.8486c-.1387,9.7344,6.13,18.8008,14.6084,22.9873a25.3426,25.3426,0,0,0,5.6436,2.0371V15.7617A42.56,42.56,0,0,0,15.8125,20.7754ZM28.33,37.293l1.1318,3.4756L26.5059,38.62l-2.95,2.1485,1.13-3.4756-2.9394-2.1407H25.38l1.126-3.4545,1.1328,3.4545h3.6289Z" transform="translate(-15.8102 -15.7617)"/><path d="M67.0405,47.45H66.2l-.12-6.96h.9839c.72,3.96,2.7363,6.0244,5.8085,6.0244,2.6163,0,4.0562-1.32,4.0562-3.4326a2.6775,2.6775,0,0,0-1.0562-2.28,13.98,13.98,0,0,0-3.936-1.32c-3.84-1.0323-5.6885-1.9922-5.6885-5.1607,0-2.9761,1.9922-4.896,5.1123-4.896a6.4632,6.4632,0,0,1,4.4883,1.68l.9361-1.44h.8881l.2642,6.2407h-.936c-.9121-3.5767-2.8081-5.3765-5.6407-5.3765-2.1123,0-3.312,1.0562-3.312,2.9043,0,2.3042,1.8,2.5679,4.9922,3.36a9.3814,9.3814,0,0,1,4.2725,1.8,4.9113,4.9113,0,0,1,1.4638,3.6963c0,3.3364-2.1118,5.3047-5.9521,5.3047a6.8672,6.8672,0,0,1-4.7764-1.8Z" transform="translate(-15.8102 -15.7617)"/><path d="M79.0166,37.105v-.96c1.9678-.144,3.0962-1.8481,3.2158-4.9682h1.0083v4.8725h3.4566V37.105H83.1206v6.9365c0,1.3682.2642,2.04,1.416,2.04,1.3208,0,1.92-1.0561,1.9927-3.2641h.8877v.312c0,2.9043-1.3193,4.44-3.7441,4.44-2.16,0-2.7364-1.0561-2.7364-3.3125V37.105Z" transform="translate(-15.8102 -15.7617)"/><path d="M93.4648,35.6646c3.168,0,5.377,2.3764,5.377,5.9526s-2.2324,5.9287-5.377,5.9287-5.4-2.3525-5.4-5.9287S90.2969,35.6646,93.4648,35.6646Zm-.0234,10.8969c2.1113,0,2.9512-1.56,2.9512-4.9443s-.84-4.9683-2.9278-4.9683-2.9277,1.584-2.9277,4.9683C90.5371,44.9775,91.4,46.5615,93.4414,46.5615Z" transform="translate(-15.8102 -15.7617)"/><path d="M99.416,46.1533l1.0322-.0478c.6729-.024.792-.1919.792-.8882V37.9209c0-.792-.2871-.96-1.32-.96-.2158,0-.4551.024-.72.024v-.9361l4.1045-.2881v2.3042a4.4838,4.4838,0,0,1,3.9365-2.3042c2.28,0,3.624,1.3682,3.624,3.84v5.6162c0,.6963.1446.8642.792.8882l1.0323.0478v1.0083h-5.8086V46.1533l1.0322-.0478c.624-.024.792-.1919.792-.8882V39.5049a2.0238,2.0238,0,0,0-2.208-2.2564c-2.0166,0-3.0723,1.3443-3.0723,4.0088v3.96c0,.6723.0957.8642.792.8882l1.0078.0478v1.0083H99.416Z" transform="translate(-15.8102 -15.7617)"/><path d="M113.8633,38.0889a1.8679,1.8679,0,0,0-.5508-.7681,2.3826,2.3826,0,0,0-1.2969-.2642V36.0488h5.5928v1.0078h-.6006c-.6953,0-.96.0723-.96.5039a2.7456,2.7456,0,0,0,.24.7442l2.5439,5.8564,2.4-5.76a1.4323,1.4323,0,0,0,.12-.5279c0-.6723-.48-.7924-1.6806-.8164V36.0488h4.6328v1.0078a1.804,1.804,0,0,0-1.8,1.2964l-4.0567,9.4326c-1.248,2.9043-2.5683,4.3687-4.6562,4.3687-1.416,0-2.208-.72-2.208-1.8486a1.3943,1.3943,0,0,1,1.4394-1.4161,1.1293,1.1293,0,0,1,1.2481,1.1763,1.9079,1.9079,0,0,1-.1914.6958c0,.1685.1445.2642.4316.2642.7676,0,1.9688-1.272,3-3.7681l.168-.3843Z" transform="translate(-15.8102 -15.7617)"/><path d="M128.623,46.0337h1.2481c.9609,0,1.2725-.2163,1.2725-1.1524V32.1123c0-.936-.3116-1.1519-1.2725-1.1519H128.623V29.832h9.0733c3.4082,0,5.1846,1.4883,5.1846,4.2246,0,2.064-1.3448,3.4322-4.0323,4.0083,3.3116.4322,4.92,1.896,4.92,4.4405,0,2.9043-2.2559,4.6562-6.36,4.6562H128.623Zm5.0889-8.377h1.92c3.0967,0,4.4649-.72,4.4649-3.3842,0-2.4244-1.08-3.36-3.6729-3.36h-1.5117c-.9844,0-1.2.24-1.2,1.0562Zm0,7.2486c0,.8882.24,1.1284,1.32,1.1284h1.7041c2.8565,0,4.1045-1.0083,4.1045-3.6006,0-2.7363-1.5127-3.72-4.9687-3.72h-2.16Z" transform="translate(-15.8102 -15.7617)"/><path d="M149.3359,46.1055l1.4639.0478v1.0083h-6.3125V46.1533l1.1279-.0478c.6719-.024.792-.2159.792-.8882V37.9209c0-.84-.3115-.936-1.4394-.936h-.7207v-.9361l4.1767-.2881V39.145c.7442-2.28,1.9678-3.4565,3.5039-3.4565a2.0464,2.0464,0,0,1,2.1846,2.0405,1.3893,1.3893,0,0,1-1.3926,1.4878,1.2987,1.2987,0,0,1-1.416-1.3682,1.2216,1.2216,0,0,1,.4805-1.0317H151.64c-1.5117,0-3.0957,2.28-3.0957,5.8325v2.5679C148.5439,45.89,148.6641,46.0815,149.3359,46.1055Z" transform="translate(-15.8102 -15.7617)"/><path d="M159.8,35.6646c3.168,0,5.376,2.3764,5.376,5.9526s-2.2315,5.9287-5.376,5.9287-5.4-2.3525-5.4-5.9287S156.6318,35.6646,159.8,35.6646Zm-.0244,10.8969c2.1123,0,2.9521-1.56,2.9521-4.9443s-.84-4.9683-2.9277-4.9683-2.9287,1.584-2.9287,4.9683C156.8711,44.9775,157.7354,46.5615,159.7754,46.5615Z" transform="translate(-15.8102 -15.7617)"/><path d="M171.6553,35.6646c3.1679,0,5.376,2.3764,5.376,5.9526s-2.2315,5.9287-5.376,5.9287-5.4-2.3525-5.4-5.9287S168.4873,35.6646,171.6553,35.6646Zm-.0244,10.8969c2.1123,0,2.9521-1.56,2.9521-4.9443s-.84-4.9683-2.9277-4.9683-2.9287,1.584-2.9287,4.9683C168.7266,44.9775,169.5908,46.5615,171.6309,46.5615Z" transform="translate(-15.8102 -15.7617)"/><path d="M177.0791,46.1533l1.08-.0478c.6719-.024.8164-.2159.8164-.8882V31.56c0-.792-.2881-.96-1.32-.96-.1924,0-.4326.0239-.6963.0239v-.936l4.2-.2881V41.2813l3.6963-3.3843a.9715.9715,0,0,0,.2881-.5283c0-.3121-.3838-.4078-1.2237-.4078h-.7685v-.9121h6.1445v.9121h-.1436c-1.56,0-2.496.7437-3.7207,1.8721l-1.2236,1.1279,3.7676,5.0166a2.7391,2.7391,0,0,0,2.3769,1.1758v1.0083h-6.1933V46.1533l.7207-.0478c.5517-.024.84-.0718.84-.36a.7949.7949,0,0,0-.2158-.48L182.623,41.377l-1.4638,1.2963v2.544c0,.6963.1445.8642.8164.8882l1.0557.0478v1.0083h-5.9522Z" transform="translate(-15.8102 -15.7617)"/><path class="b" d="M73.2163,54.832V55.96h-1.248c-.96,0-1.2715.24-1.2715,1.1519v9.6968c0,3.0483,1.5117,4.44,4.8,4.44,2.16,0,3.6006-.7681,4.2724-2.2319a8.9944,8.9944,0,0,0,.36-3.3364V58.1206c0-1.4643-.3125-2.16-1.7285-2.16H77.3452V54.832h6.6006V55.96h-.8887c-1.3681,0-1.7519.6241-1.7519,2.16v7.6563c0,4.7045-1.7285,6.7929-6.6485,6.7929-4.3447,0-6.5527-1.9443-6.5527-5.7846V57.1123c0-.9121-.2637-1.1519-1.2725-1.1519H65.44V54.832Z" transform="translate(-15.8102 -15.7617)"/><path class="b" d="M82.7915,71.1533l1.0322-.0478c.6719-.024.792-.1919.792-.8882V62.9209c0-.792-.2881-.96-1.32-.96-.2158,0-.456.024-.72.024v-.9361l4.104-.2881v2.3042a4.4852,4.4852,0,0,1,3.9375-2.3042c2.2793,0,3.623,1.3682,3.623,3.84v5.6162c0,.6963.1446.8642.793.8882l1.0313.0478v1.0083H90.2559V71.1533l1.0332-.0478c.623-.024.791-.1919.791-.8882V64.5049a2.0231,2.0231,0,0,0-2.2071-2.2564c-2.0175,0-3.0722,1.3443-3.0722,4.0088v3.96c0,.6723.0957.8642.791.8882l1.0078.0478v1.0083H82.7915Z" transform="translate(-15.8102 -15.7617)"/><path class="b" d="M96.4961,71.1533l1.1523-.0478c.6719-.024.8145-.2159.8145-.8882V62.9209c0-.792-.2871-.96-1.3184-.96-.1933,0-.4336.024-.6972.024v-.9361l4.2011-.2881v9.4566c0,.6963.1426.8642.8164.8882l1.0547.0478v1.0083H96.4961Zm4.4394-14.9292a1.4277,1.4277,0,1,1-1.4394-1.416A1.439,1.439,0,0,1,100.9355,56.2241Z" transform="translate(-15.8102 -15.7617)"/><path class="b" d="M107.9668,72.5459l-4.1523-9.5293c-.3106-.7437-.6465-.96-1.5586-.96h-.168V61.0488h5.375v1.0078c-1.0078.024-1.44.0962-1.44.5523a2.5517,2.5517,0,0,0,.2637.7681l2.5918,5.9765,2.1367-5.52a2.9236,2.9236,0,0,0,.24-.96c0-.5043-.4551-.8164-1.32-.8164h-.2636V61.0488h4.6562v1.0078c-1.08.024-1.584.5523-2.041,1.68l-3.5762,8.8091Z" transform="translate(-15.8102 -15.7617)"/><path class="b" d="M116.5117,67.2651c0,2.5445,1.2949,4.0083,3.1914,4.0083a4.15,4.15,0,0,0,3.8164-2.5922l.84.48a5.2909,5.2909,0,0,1-5.0645,3.3848c-3.0234,0-5.207-2.3286-5.207-5.9287,0-3.5762,2.16-5.9526,5.207-5.9526,3.0977,0,5.0645,2.1362,5.0645,5.6884v.4322h-7.8242C116.5352,66.9531,116.5117,67.0972,116.5117,67.2651Zm4.5117-1.5122c.625,0,.84-.144.84-.768,0-2.1841-.9121-3.36-2.543-3.36-1.8242,0-2.7129,1.3682-2.7617,4.1284Z" transform="translate(-15.8102 -15.7617)"/><path class="b" d="M129.76,71.1055l1.4648.0478v1.0083h-6.3125V71.1533l1.127-.0478c.6718-.024.7929-.2159.7929-.8882V62.9209c0-.84-.3125-.936-1.4414-.936h-.7187v-.9361l4.1758-.2881V64.145c.7441-2.28,1.9687-3.4565,3.5039-3.4565a2.0456,2.0456,0,0,1,2.1836,2.0405,1.3884,1.3884,0,0,1-1.3907,1.4878,1.2982,1.2982,0,0,1-1.416-1.3682,1.2254,1.2254,0,0,1,.4785-1.0317h-.1425c-1.5137,0-3.0977,2.28-3.0977,5.8325v2.5679C128.9668,70.89,129.0879,71.0815,129.76,71.1055Z" transform="translate(-15.8102 -15.7617)"/><path class="b" d="M136.0938,67.769c.6015,2.4722,2.0175,3.7686,3.9375,3.7686,1.5351,0,2.52-.792,2.52-1.9922,0-1.272-.959-1.5361-2.52-1.8481-2.9043-.6-4.6563-1.104-4.6563-3.7686a3.0872,3.0872,0,0,1,3.3359-3.24,4.6672,4.6672,0,0,1,3.0235.936l.6972-.84h.7442V64.769h-.7442c-.6718-2.0883-1.873-3.1445-3.5761-3.1445-1.3457,0-2.1856.7442-2.1856,1.6563,0,1.416,1.0332,1.5844,3,1.9682,2.834.5523,4.2969,1.2,4.2969,3.6,0,2.3042-1.5117,3.7447-4.0078,3.7447a4.8028,4.8028,0,0,1-3.1445-1.1763l-.793,1.104h-.791V67.769Z" transform="translate(-15.8102 -15.7617)"/><path class="b" d="M144.7578,71.1533l1.1524-.0478c.6718-.024.8164-.2159.8164-.8882V62.9209c0-.792-.2891-.96-1.32-.96-.1934,0-.4317.024-.6973.024v-.9361l4.2012-.2881v9.4566c0,.6963.1445.8642.8164.8882l1.0566.0478v1.0083h-6.0254Zm4.44-14.9292a1.4278,1.4278,0,1,1-1.44-1.416A1.439,1.439,0,0,1,149.1973,56.2241Z" transform="translate(-15.8102 -15.7617)"/><path class="b" d="M150.541,62.105v-.96c1.9688-.144,3.0977-1.8481,3.2168-4.9682h1.0078v4.8725h3.4571V62.105h-3.5762v6.9365c0,1.3682.2637,2.04,1.416,2.04,1.32,0,1.92-1.0561,1.9922-3.2641h.8887v.312c0,2.9043-1.32,4.44-3.7461,4.44-2.16,0-2.7364-1.0561-2.7364-3.3125V62.105Z" transform="translate(-15.8102 -15.7617)"/><path class="b" d="M160.8379,63.0889a1.8691,1.8691,0,0,0-.5527-.7681,2.3753,2.3753,0,0,0-1.295-.2642V61.0488h5.5918v1.0078h-.6c-.6972,0-.9609.0723-.9609.5039a2.7126,2.7126,0,0,0,.24.7442l2.5449,5.8564,2.4-5.76a1.4545,1.4545,0,0,0,.1192-.5279c0-.6723-.4805-.7924-1.68-.8164V61.0488h4.6328v1.0078a1.8035,1.8035,0,0,0-1.8008,1.2964l-4.0566,9.4326c-1.2481,2.9043-2.5684,4.3687-4.6563,4.3687-1.416,0-2.209-.72-2.209-1.8486A1.3959,1.3959,0,0,1,159.998,73.89a1.13,1.13,0,0,1,1.2481,1.1763,1.8933,1.8933,0,0,1-.1934.6958c0,.1685.1446.2642.4336.2642.7676,0,1.9668-1.272,3-3.7681l.168-.3843Z" transform="translate(-15.8102 -15.7617)"/></svg>