<svg xmlns="http://www.w3.org/2000/svg" xmlns:xlink="http://www.w3.org/1999/xlink" width="145" viewBox="0 0 522.2378 522.8283"><defs><style>.a{fill:none;}.b{fill:#d3b34e;}.c{fill:url(#a);}.d{fill:url(#b);}.e{fill:url(#c);}.f{fill:url(#d);}.g{fill:url(#e);}.h{fill:url(#f);}.i{fill:url(#g);}.j{fill:url(#h);}.k{fill:url(#i);}.l{fill:url(#j);}.m{fill:url(#k);}.n{fill:url(#l);}.o{fill:url(#m);}.p{fill:url(#n);}.q{fill:url(#o);}.r{fill:url(#p);}.s{fill:url(#q);}.t{fill:url(#r);}.u{fill:url(#s);}.v{fill:url(#t);}.w{fill:url(#u);}.x{fill:url(#v);}.y{fill:url(#w);}.z{fill:url(#x);}.aa{fill:url(#y);}.ab{fill:url(#z);}.ac{fill:url(#aa);}.ad{fill:url(#ab);}.ae{fill:url(#ac);}.af{fill:url(#ad);}.ag{fill:url(#ae);}.ah{fill:url(#af);}.ai{fill:url(#ag);}.aj{fill:url(#ah);}.ak{fill:url(#ai);}.al{fill:url(#aj);}.am{fill:url(#ak);}.an{fill:url(#al);}.ao{fill:url(#am);}.ap{fill:url(#an);}.aq{fill:url(#ao);}.ar{fill:url(#ap);}.as{fill:url(#aq);}.at{fill:url(#ar);}.au{fill:url(#as);}.av{fill:url(#at);}.aw{fill:url(#au);}.ax{fill:url(#av);}.ay{fill:url(#aw);}.az{fill:url(#ax);}.ba{fill:url(#ay);}.bb{fill:url(#az);}.bc{fill:url(#ba);}.bd{fill:url(#bb);}.be{fill:url(#bc);}.bf{fill:url(#bd);}.bg{fill:url(#be);}.bh{fill:url(#bf);}.bi{fill:url(#bg);}.bj{fill:url(#bh);}.bk{fill:url(#bi);}.bl{fill:url(#bj);}.bm{fill:url(#bk);}.bn{fill:url(#bl);}.bo{fill:url(#bm);}.bp{fill:url(#bn);}.bq{fill:url(#bo);}.br{fill:url(#bp);}.bs{fill:url(#bq);}.bt{fill:url(#br);}.bu{fill:url(#bs);}.bv{fill:url(#bt);}.bw{fill:url(#bu);}.bx{fill:url(#bv);}.by{fill:url(#bw);}.bz{fill:url(#bx);}.ca{fill:url(#by);}.cb{fill:url(#bz);}.cc{fill:url(#ca);}.cd{fill:url(#cb);}.ce{fill:url(#cc);}.cf{fill:url(#cd);}.cg{fill:url(#ce);}.ch{fill:url(#cf);}.ci{fill:url(#cg);}.cj{fill:url(#ch);}.ck{fill:url(#ci);}.cl{fill:url(#cj);}.cm{fill:url(#ck);}.cn{fill:url(#cl);}.co{fill:url(#cm);}.cp{fill:url(#cn);}.cq{fill:url(#co);}.cr{fill:url(#cp);}.cs{fill:url(#cq);}.ct{fill:url(#cr);}.cu{fill:url(#cs);}.cv{fill:url(#ct);}.cw{fill:url(#cu);}.cx{fill:url(#cv);}.cy{fill:url(#cw);}.cz{fill:url(#cx);}.da{fill:url(#cy);}.db{fill:url(#cz);}.dc{fill:url(#da);}.dd{fill:url(#db);}.de{fill:url(#dc);}.df{fill:url(#dd);}.dg{fill:url(#de);}.dh{fill:url(#df);}.di{fill:url(#dg);}.dj{fill:url(#dh);}.dk{fill:url(#di);}.dl,.do{fill:#fff;}.dl{stroke:#c4a006;stroke-width:0.9536px;}.dm{fill:#005699;}.dm,.dn{stroke:#dbe0ee;stroke-width:0.15px;}.dn{fill:#99add2;}.do{stroke:#005699;stroke-width:2px;}</style><radialGradient id="a" cx="134.1383" cy="73.1158" r="523.5224" gradientUnits="userSpaceOnUse"><stop offset="0" stop-color="#e7d298"/><stop offset="1" stop-color="#c4a006"/></radialGradient><radialGradient id="b" cx="134.1325" cy="73.1363" r="523.48" xlink:href="#a"/><radialGradient id="c" cx="134.1334" cy="73.1426" r="523.4623" xlink:href="#a"/><radialGradient id="d" cx="134.1285" cy="73.1356" r="523.484" xlink:href="#a"/><radialGradient id="e" cx="134.1449" cy="73.1209" r="523.4864" xlink:href="#a"/><radialGradient id="f" cx="134.1357" cy="73.1176" r="523.4963" xlink:href="#a"/><radialGradient id="g" cx="134.1311" cy="73.112" r="523.5015" xlink:href="#a"/><radialGradient id="h" cx="134.1479" cy="73.1435" r="523.4622" xlink:href="#a"/><radialGradient id="i" cx="134.1347" cy="73.1368" r="523.4811" gradientUnits="userSpaceOnUse"><stop offset="0" stop-color="#efe0ba"/><stop offset="1" stop-color="#c4a006"/></radialGradient><radialGradient id="j" cx="134.1053" cy="73.1254" r="523.5056" xlink:href="#i"/><radialGradient id="k" cx="134.1346" cy="73.1359" r="523.4797" xlink:href="#a"/><radialGradient id="l" cx="134.1365" cy="73.137" r="523.4796" xlink:href="#i"/><radialGradient id="m" cx="134.1329" cy="73.1459" r="523.4558" xlink:href="#a"/><radialGradient id="n" cx="134.1343" cy="73.1389" r="523.4756" xlink:href="#i"/><radialGradient id="o" cx="134.1328" cy="73.1432" r="523.4597" xlink:href="#a"/><radialGradient id="p" cx="134.1342" cy="73.1357" r="523.4809" xlink:href="#i"/><radialGradient id="q" cx="134.1317" cy="73.1319" r="523.4859" xlink:href="#a"/><radialGradient id="r" cx="134.134" cy="73.1319" r="523.4876" xlink:href="#i"/><radialGradient id="s" cx="134.1332" cy="73.1341" r="523.4826" xlink:href="#a"/><radialGradient id="t" cx="134.1351" cy="73.1341" r="523.4844" xlink:href="#i"/><radialGradient id="u" cx="134.144" cy="73.1985" r="523.375" xlink:href="#a"/><radialGradient id="v" cx="134.1436" cy="73.1916" r="523.395" xlink:href="#a"/><radialGradient id="w" cx="134.1455" cy="73.1916" r="523.3944" xlink:href="#i"/><radialGradient id="x" cx="134.1463" cy="73.1158" r="523.4894" xlink:href="#a"/><radialGradient id="y" cx="134.1355" cy="73.1334" r="523.4841" xlink:href="#i"/><radialGradient id="z" cx="134.1453" cy="73.0594" r="523.5611" xlink:href="#a"/><radialGradient id="aa" cx="134.1346" cy="73.0772" r="523.5547" xlink:href="#i"/><radialGradient id="ab" cx="134.1353" cy="73.1171" r="523.4964" xlink:href="#a"/><radialGradient id="ac" cx="134.1353" cy="73.136" r="523.4799" xlink:href="#i"/><radialGradient id="ad" cx="134.1346" cy="73.1139" r="523.499" xlink:href="#a"/><radialGradient id="ae" cx="134.1346" cy="73.1331" r="523.4832" xlink:href="#i"/><radialGradient id="af" cx="134.1289" cy="73.1125" r="523.5035" xlink:href="#a"/><radialGradient id="ag" cx="134.1312" cy="73.1366" r="523.4818" xlink:href="#i"/><radialGradient id="ah" cx="134.1322" cy="73.1142" r="523.5014" xlink:href="#a"/><radialGradient id="ai" cx="134.1343" cy="73.1381" r="523.4787" xlink:href="#i"/><radialGradient id="aj" cx="134.1151" cy="73.1461" r="523.4889" xlink:href="#a"/><radialGradient id="ak" cx="134.0998" cy="73.138" r="523.5097" xlink:href="#i"/><radialGradient id="al" cx="134.1342" cy="73.135" r="523.4851" xlink:href="#a"/><radialGradient id="am" cx="134.1339" cy="73.1288" r="523.4878" xlink:href="#a"/><radialGradient id="an" cx="134.1358" cy="73.1283" r="523.4996" xlink:href="#a"/><radialGradient id="ao" cx="134.1324" cy="73.1357" r="523.4802" xlink:href="#a"/><radialGradient id="ap" cx="134.1737" cy="73.1455" r="523.4354" xlink:href="#a"/><radialGradient id="aq" cx="134.1143" cy="73.1306" r="523.5041" xlink:href="#a"/><radialGradient id="ar" cx="134.1455" cy="73.1253" r="523.4646" xlink:href="#a"/><radialGradient id="as" cx="134.1369" cy="73.129" r="523.4831" xlink:href="#a"/><radialGradient id="at" cx="134.1028" cy="73.1009" r="523.5703" xlink:href="#a"/><radialGradient id="au" cx="134.0935" cy="73.1043" r="523.5928" xlink:href="#a"/><radialGradient id="av" cx="134.1343" cy="73.1345" r="523.4849" xlink:href="#a"/><radialGradient id="aw" cx="134.1284" cy="73.1323" r="523.5035" xlink:href="#a"/><radialGradient id="ax" cx="134.1334" cy="73.1405" r="523.4713" xlink:href="#i"/><radialGradient id="ay" cx="134.0287" cy="73.1543" r="523.5018" xlink:href="#i"/><radialGradient id="az" cx="133.9029" cy="73.1428" r="523.8324" xlink:href="#i"/><radialGradient id="ba" cx="134.171" cy="73.1491" r="523.3397" xlink:href="#i"/><radialGradient id="bb" cx="134.1344" cy="73.1362" r="523.4814" xlink:href="#i"/><radialGradient id="bc" cx="134.1337" cy="73.135" r="523.4845" xlink:href="#a"/><radialGradient id="bd" cx="134.1342" cy="73.1363" r="523.4797" xlink:href="#i"/><radialGradient id="be" cx="134.1376" cy="73.1328" r="523.4764" xlink:href="#a"/><radialGradient id="bf" cx="134.1388" cy="73.1344" r="523.4699" xlink:href="#i"/><radialGradient id="bg" cx="134.1324" cy="73.1283" r="523.4921" xlink:href="#a"/><radialGradient id="bh" cx="134.1329" cy="73.1361" r="523.4833" xlink:href="#i"/><radialGradient id="bi" cx="134.1337" cy="73.1291" r="523.4882" xlink:href="#a"/><radialGradient id="bj" cx="134.1342" cy="73.1366" r="523.4797" xlink:href="#i"/><radialGradient id="bk" cx="134.1368" cy="73.1286" r="523.4979" xlink:href="#a"/><radialGradient id="bl" cx="134.1354" cy="73.1353" r="523.4833" xlink:href="#i"/><radialGradient id="bm" cx="134.1342" cy="73.1299" r="523.4959" xlink:href="#a"/><radialGradient id="bn" cx="134.1327" cy="73.1369" r="523.4794" xlink:href="#i"/><radialGradient id="bo" cx="134.1478" cy="73.1287" r="523.4765" xlink:href="#a"/><radialGradient id="bp" cx="134.1498" cy="73.1291" r="523.4847" xlink:href="#a"/><radialGradient id="bq" cx="134.1483" cy="73.1364" r="523.4683" xlink:href="#i"/><radialGradient id="br" cx="134.1358" cy="73.1162" r="523.5197" xlink:href="#a"/><radialGradient id="bs" cx="134.1353" cy="73.1362" r="523.4806" xlink:href="#i"/><radialGradient id="bt" cx="134.1339" cy="73.1135" r="523.5267" xlink:href="#a"/><radialGradient id="bu" cx="134.1334" cy="73.1344" r="523.4853" xlink:href="#i"/><radialGradient id="bv" cx="134.1343" cy="73.1367" r="523.4775" xlink:href="#a"/><radialGradient id="bw" cx="134.1362" cy="73.1367" r="523.4792" xlink:href="#i"/><radialGradient id="bx" cx="134.1395" cy="73.0981" r="523.5582" xlink:href="#a"/><radialGradient id="by" cx="134.1371" cy="73.1181" r="523.5171" xlink:href="#a"/><radialGradient id="bz" cx="134.139" cy="73.1186" r="523.5177" xlink:href="#i"/><radialGradient id="ca" cx="134.08" cy="73.1422" r="523.5327" xlink:href="#a"/><radialGradient id="cb" cx="134.0653" cy="73.1344" r="523.5542" xlink:href="#i"/><radialGradient id="cc" cx="134.1095" cy="73.1322" r="523.5064" xlink:href="#a"/><radialGradient id="cd" cx="134.1301" cy="73.1369" r="523.4835" xlink:href="#i"/><radialGradient id="ce" cx="134.11" cy="73.1297" r="523.5099" xlink:href="#a"/><radialGradient id="cf" cx="134.1305" cy="73.1343" r="523.4864" xlink:href="#i"/><radialGradient id="cg" cx="134.1009" cy="73.1253" r="523.5307" xlink:href="#a"/><radialGradient id="ch" cx="134.0911" cy="73.1356" r="523.5465" xlink:href="#i"/><radialGradient id="ci" cx="134.1492" cy="73.1243" r="523.4598" xlink:href="#a"/><radialGradient id="cj" cx="134.1392" cy="73.1352" r="523.474" xlink:href="#i"/><radialGradient id="ck" cx="132.4169" cy="73.1532" r="526.7923" xlink:href="#a"/><radialGradient id="cl" cx="132.414" cy="73.1605" r="526.7891" xlink:href="#i"/><radialGradient id="cm" cx="134.135" cy="73.1296" r="523.4854" xlink:href="#a"/><radialGradient id="cn" cx="134.1323" cy="73.1368" r="523.4821" xlink:href="#i"/><radialGradient id="co" cx="134.1382" cy="73.1293" r="523.4814" xlink:href="#a"/><radialGradient id="cp" cx="134.1357" cy="73.1368" r="523.4768" xlink:href="#i"/><radialGradient id="cq" cx="134.1316" cy="73.1125" r="523.4946" xlink:href="#a"/><radialGradient id="cr" cx="134.1243" cy="73.116" r="523.512" xlink:href="#a"/><radialGradient id="cs" cx="134.1214" cy="73.1233" r="523.509" xlink:href="#i"/><radialGradient id="ct" cx="134.1294" cy="73.1331" r="523.5013" xlink:href="#a"/><radialGradient id="cu" cx="134.1357" cy="73.1369" r="523.4758" xlink:href="#i"/><radialGradient id="cv" cx="134.1355" cy="73.1306" r="523.4934" xlink:href="#a"/><radialGradient id="cw" cx="134.1418" cy="73.1346" r="523.4692" xlink:href="#i"/><radialGradient id="cx" cx="134.2709" cy="73.1291" r="523.2322" xlink:href="#a"/><radialGradient id="cy" cx="134.2772" cy="73.133" r="523.2063" xlink:href="#i"/><radialGradient id="cz" cx="134.1477" cy="73.1235" r="523.467" xlink:href="#a"/><radialGradient id="da" cx="134.1384" cy="73.1269" r="523.4897" xlink:href="#a"/><radialGradient id="db" cx="134.1447" cy="73.1308" r="523.4638" xlink:href="#i"/><radialGradient id="dc" cx="134.1267" cy="73.1305" r="523.5106" xlink:href="#a"/><radialGradient id="dd" cx="134.1337" cy="73.1361" r="523.4823" xlink:href="#i"/><radialGradient id="de" cx="134.1281" cy="73.1314" r="523.5066" xlink:href="#a"/><radialGradient id="df" cx="134.1351" cy="73.1366" r="523.4797" xlink:href="#i"/><radialGradient id="dg" cx="134.1551" cy="73.139" r="523.4109" xlink:href="#a"/><radialGradient id="dh" cx="134.1488" cy="73.1351" r="523.4339" xlink:href="#a"/><radialGradient id="di" cx="134.1556" cy="73.1404" r="523.4067" xlink:href="#i"/></defs><path class="a" d="M375.7031,457.7334c1.7578,5.457,3.1172,12.4834,8.752,14.9053l3.4629.9443c7.0215-1.832,13.1738-5.7549,18.9551-9.5019,5.85-4.7422,13.3769-10.9434,15.1445-17.8956.1973-5.1572-3.8535-8.541-7.6113-11.6074a199.7466,199.7466,0,0,0-42.4629-22.8271q-.3516.2388-.7071.4765C370.26,427.5449,373.3906,442.47,375.7031,457.7334Z" transform="translate(-26.8813 -26.5858)"/><path class="a" d="M469.959,345.7129c5.0977,2.6162,11.041,6.6279,16.7246,4.3633l3.1133-1.792c3.1055-5.294,4.7129-11.2012,6.0058-16.9678.0625-.4805.1368-.957.1836-1.44.7891-7.6787,2.1973-18.4727-1.7656-25.1309-3.4961-3.7783-8.7676-3.31-13.6-2.8291-1.84.3223-3.6719.6758-5.5,1.0469a285.914,285.914,0,0,1-30.7539,23.3613C452.3809,333.3008,461.2559,339.3066,469.959,345.7129Z" transform="translate(-26.8813 -26.5858)"/><path class="a" d="M433.6641,411.58c3.7109,4.3681,7.6621,10.3545,13.7832,10.42l3.5664-.4521c5.3926-4.084,9.3984-9.5655,13.084-14.8868.1172-.2109.2441-.4131.3593-.6259,3.67-6.795,9.0977-16.2325,7.9883-23.8956-1.7871-4.832-6.834-6.415-11.4707-7.82a199.9936,199.9936,0,0,0-47.6015-4.8232c-.4024.6191-.8047,1.2383-1.2168,1.8506C417.1074,385.8271,425.6953,398.3984,433.6641,411.58Z" transform="translate(-26.8813 -26.5858)"/><path class="a" d="M139.7568,331.4941c-4.4277,4.1778-8.4179,9.1163-12.7148,13.9356-1.3857,4.6631-9.542,9.0674-4.165,14.0234a145.2288,145.2288,0,0,0,34.7636,1.8311,148.7019,148.7019,0,0,1-11.539-26.0205Q142.9009,333.4209,139.7568,331.4941Z" transform="translate(-26.8813 -26.5858)"/><path class="a" d="M380.35,405.6045c6.7988,4.041,14.8613,6.2666,22.91,9.0967,4.8554-.51,12.041,5.3359,14.5664-1.5215a145.43,145.43,0,0,0-11.8535-33.3076A150.3646,150.3646,0,0,1,380.35,405.6045Z" transform="translate(-26.8813 -26.5858)"/><path class="a" d="M270.6719,436.5215c1.9736,7.6191,6.0508,14.8379,9.7265,22.4678,3.7852,3.0673,4.7354,12.288,11.3692,9.2216a144.8073,144.8073,0,0,0,15.15-31.872,150.62,150.62,0,0,1-36.2461.1826Z" transform="translate(-26.8813 -26.5858)"/><path class="a" d="M170.6192,380.6367c-3.8975,6.7237-6.1075,14.6143-8.878,22.5195.5078,4.85-5.33,12.04,1.5264,14.5616A145.3652,145.3652,0,0,0,196.21,406.042,150.4172,150.4172,0,0,1,170.6192,380.6367Z" transform="translate(-26.8813 -26.5858)"/><path class="a" d="M229.56,469.7031c-2.6211,5.0957-6.6231,11.0313-4.3535,16.7168l1.78,3.11c6.6914,3.9248,14.3672,5.4551,21.4991,6.9883,7.4355.7675,16.875,1.5888,22.9062-2.002,3.7891-3.5,3.3115-8.7627,2.8389-13.5957a200.2664,200.2664,0,0,0-13.8067-45.94c-.6972-.1309-1.3955-.2608-2.0888-.4C246.94,444.6748,238.6475,457.3525,229.56,469.7031Z" transform="translate(-26.8813 -26.5858)"/><path class="a" d="M97.9971,302.8008c-5.7022-.4746-12.7217-1.8994-17.1065,2.373l-2.1982,2.836c-1.15,8.3623.7519,16.7207,2.1211,24.43,2.0635,6.7314,4.8818,14.4638,9.9609,18.2587,4.6836,2.1553,9.3672-.291,13.6426-2.58a202.99,202.99,0,0,0,27.918-21.3321,285.8967,285.8967,0,0,1-30.6211-23.0869Q99.8565,303.2569,97.9971,302.8008Z" transform="translate(-26.8813 -26.5858)"/><path class="a" d="M118.2832,374.708c-5.4531,1.7471-12.4824,3.1123-14.8994,8.7412l-.9375,3.4619c2.03,7.7871,6.6338,14.5118,10.7148,20.8409,4.6338,5.6914,10.5332,12.4921,17.0957,14.1542,5.1524.2061,8.545-3.8476,11.6143-7.6005a199.8724,199.8724,0,0,0,22.6211-42.002q-.7193-1.0531-1.4209-2.1211C148.0137,369.3418,133.3145,372.42,118.2832,374.708Z" transform="translate(-26.8813 -26.5858)"/><path class="a" d="M153.793,339.5215a143.7719,143.7719,0,0,0,268.4062.0049,285.0828,285.0828,0,0,1-268.4062-.0049Z" transform="translate(-26.8813 -26.5858)"/><path class="a" d="M304.1074,478.291c-.4746,5.7051-1.9043,12.7256,2.3731,17.1094l2.832,2.1973c7.2656,1.0019,14.5293-.3018,21.3692-1.5635,7.2519-2.1465,16.6933-4.9981,21.0175-10.79,2.168-4.6757-.2949-9.37-2.5761-13.6425a200.7436,200.7436,0,0,0-30.4141-37.2393c-.4629.0967-.9258.19-1.3887.2813C310.6,448.3789,307.7813,463.3389,304.1074,478.291Z" transform="translate(-26.8813 -26.5858)"/><path class="a" d="M164.8613,433.5557c-4.372,3.7089-10.3418,7.666-10.4189,13.7929l.4463,3.55c4.93,6.5039,11.8681,10.98,18.1211,15.3243,6.2558,3.3281,13.7929,6.8769,20.123,5.9521,4.8379-1.7842,6.416-6.8223,7.8135-11.4727a199.5809,199.5809,0,0,0,4.8291-47.8027c-.3633-.2392-.7285-.4746-1.09-.7168C190.3838,417.1709,177.9229,425.6689,164.8613,433.5557Z" transform="translate(-26.8813 -26.5858)"/><path class="a" d="M418.7207,360.63c7.7442,1.0664,15.9375.0683,24.3457-.4053,4.2891-2.3193,13.166.333,12.8653-6.9805a147.0464,147.0464,0,0,0-19.1192-22.1054c-2.2871,1.4052-4.59,2.7881-6.92,4.1289A148.6885,148.6885,0,0,1,418.7207,360.63Z" transform="translate(-26.8813 -26.5858)"/><path class="a" d="M215.044,442.8047c2.3252,4.29-.3262,13.1592,6.9853,12.8691a145.6121,145.6121,0,0,0,26.0889-23.5332,148.6059,148.6059,0,0,1-33.4619-13.8154C213.5625,426.1045,214.5693,434.3467,215.044,442.8047Z" transform="translate(-26.8813 -26.5858)"/><path class="a" d="M346.4258,448.9707c4.68,1.3994,9.08,9.5469,14.0273,4.1719a144.8776,144.8776,0,0,0,1.8047-35.334,148.5535,148.5535,0,0,1-33.4609,14.081C333.5352,438.1914,340.0957,443.32,346.4258,448.9707Z" transform="translate(-26.8813 -26.5858)"/><path class="b" d="M78.2178,322.9131c.37,1.7471.7851,3.501,1.3174,5.25.3994,1.34.8213,2.7842,1.2783,4.2764-1.3692-7.709-3.2715-16.0674-2.1211-24.43l2.1982-2.836c4.3848-4.2724,11.4043-2.8476,17.1065-2.373q1.8588.4571,3.7168.8984a286.4428,286.4428,0,0,1-37.5225-39.3081c-.1377.3159-.2783.6436-.416.9546-8.7627,13.272-22.3613,16.5864-36.8379,16.1157-.0547,4.2632-.06,9.3755-.0547,12.9136,16.2139-.9424,32.9551,4.6211,40.4024,21.2314q2.2528,5.8975,4.1953,11.9209-.2124-1.9145-.4844-3.83Z" transform="translate(-26.8813 -26.5858)"/><path class="b" d="M108.0283,401.0459c1.0059,1.458,2.0635,2.9228,3.2149,4.34.6113.7539,1.2519,1.5489,1.9179,2.3663-4.081-6.3291-8.6845-13.0538-10.7148-20.8409l.9375-3.4619c2.417-5.6289,9.4463-6.9941,14.8994-8.7412,15.0313-2.2881,29.7305-5.3662,44.7881-4.5254q-2.8638-4.3461-5.4307-8.8984a145.2288,145.2288,0,0,1-34.7636-1.8311c-5.377-4.956,2.7793-9.36,4.165-14.0234,4.2969-4.8193,8.2871-9.7578,12.7148-13.9356-2.5019-1.5293-4.9716-3.1054-7.4218-4.708a202.99,202.99,0,0,1-27.918,21.3321c-4.2754,2.289-8.959,4.7353-13.6426,2.58-5.0791-3.7949-7.8974-11.5273-9.9609-18.2587.16.9023.3154,1.7968.4551,2.68l-7.0059,2.0577c-.8184-3.2608-1.7656-6.47-2.7822-9.6495a191.8052,191.8052,0,0,1,.8506,25.6622c-3.0166,15.6279-14.3067,23.8964-27.8672,28.996,1.58,3.9668,3.5254,8.6915,4.8887,11.9571,14.6279-7.0811,32.2158-8.3428,45.4521,4.1494q4.6685,4.9263,9.0488,10.1367c-.7129-1.31-1.4424-2.6162-2.2051-3.9053Z" transform="translate(-26.8813 -26.5858)"/><path class="c" d="M81.2686,335.1191c-.14-.8828-.295-1.7773-.4551-2.68-.457-1.4922-.8789-2.9366-1.2783-4.2764-.5323-1.749-.9473-3.5029-1.3174-5.25l-7.2217.7842q.2739,1.9144.4844,3.83c1.0166,3.18,1.9638,6.3887,2.7822,9.6495Z" transform="translate(-26.8813 -26.5858)"/><path class="b" d="M81.2686,335.1191c-.14-.8828-.295-1.7773-.4551-2.68-.457-1.4922-.8789-2.9366-1.2783-4.2764-.5323-1.749-.9473-3.5029-1.3174-5.25l-7.2217.7842q.2739,1.9144.4844,3.83c1.0166,3.18,1.9638,6.3887,2.7822,9.6495Z" transform="translate(-26.8813 -26.5858)"/><path class="b" d="M164.6026,461.4121c1.5048.97,3.03,1.9131,4.6455,2.7793,1.18.6377,2.4443,1.33,3.7617,2.0313-6.253-4.3448-13.1914-8.82-18.1211-15.3243l-.4463-3.55c.0771-6.1269,6.0469-10.084,10.4189-13.7929,13.0616-7.8868,25.5225-16.3848,39.8243-21.3731q-4.3492-2.9238-8.4756-6.1406a145.3652,145.3652,0,0,1-32.9424,11.6758c-6.8565-2.5215-1.0186-9.7119-1.5264-14.5616,2.77-7.9052,4.9805-15.7958,8.878-22.5195q-3.2037-4.0547-6.127-8.333a199.8724,199.8724,0,0,1-22.6211,42.002c-3.0693,3.7529-6.4619,7.8066-11.6143,7.6005-6.5625-1.6621-12.4619-8.4628-17.0957-14.1542.6993,1.0849,1.3848,2.1591,2.0372,3.2236l-5.6885,4.5781c-1.8145-2.4463-3.7158-4.8057-5.6563-7.125a196.2868,196.2868,0,0,1,10.3233,22.8477c3.1914,15.5888-4.0821,27.5439-14.66,37.4482,2.9805,3.05,6.5908,6.666,9.0977,9.17,10.8-12.1357,26.5722-20.0381,43.5781-13.5586,3.79,1.6934,7.5391,3.4766,11.2383,5.378-1.1123-.8955-2.2383-1.7793-3.3848-2.6387Z" transform="translate(-26.8813 -26.5858)"/><path class="d" d="M115.1983,410.9756c-.6524-1.0645-1.3379-2.1387-2.0372-3.2236-.666-.8174-1.3066-1.6124-1.9179-2.3663-1.1514-1.417-2.209-2.8818-3.2149-4.34l-6.38,3.4775c.7627,1.2891,1.4922,2.5948,2.2051,3.9053,1.9405,2.3193,3.8418,4.6787,5.6563,7.125Z" transform="translate(-26.8813 -26.5858)"/><path class="b" d="M115.1983,410.9756c-.6524-1.0645-1.3379-2.1387-2.0372-3.2236-.666-.8174-1.3066-1.6124-1.9179-2.3663-1.1514-1.417-2.209-2.8818-3.2149-4.34l-6.38,3.4775c.7627,1.2891,1.4922,2.5948,2.2051,3.9053,1.9405,2.3193,3.8418,4.6787,5.6563,7.125Z" transform="translate(-26.8813 -26.5858)"/><path class="b" d="M240.9258,495.4824c1.751.3262,3.5254.6172,5.3428.8067.7119.0722,1.457.15,2.2168.2295-7.1319-1.5332-14.8077-3.0635-21.4991-6.9883l-1.78-3.11c-2.27-5.6855,1.7324-11.6211,4.3535-16.7168,9.0879-12.3506,17.3808-25.0283,28.7754-35.123q-5.1768-1.0416-10.2168-2.44a145.6121,145.6121,0,0,1-26.0889,23.5332c-7.3115.29-4.66-8.5791-6.9853-12.8691-.4747-8.458-1.4815-16.7-.3877-24.48q-4.5426-2.562-8.8809-5.4258a199.5809,199.5809,0,0,1-4.8291,47.8027c-1.3975,4.65-2.9756,9.6885-7.8135,11.4727-6.33.9248-13.8672-2.624-20.123-5.9521.9775.6787,1.94,1.3554,2.874,2.0351l-3.498,6.3994c-2.9395-1.7607-5.9317-3.3886-8.9551-4.9433A193.3514,193.3514,0,0,1,181.85,486.99c8.917,13.1729,6.7793,27.003.7959,40.1963,3.92,1.7,8.6406,3.6465,11.9131,5.01,5.334-15.3574,16.8848-28.6943,35.0762-29.2119,4.6484.1289,9.292.3652,13.9365.7871-1.5518-.4629-3.1133-.9082-4.69-1.3125Z" transform="translate(-26.8813 -26.5858)"/><path class="e" d="M175.8838,468.2578c-.9336-.68-1.8965-1.3564-2.874-2.0351-1.3174-.7012-2.5821-1.3936-3.7617-2.0313-1.6153-.8662-3.1407-1.81-4.6455-2.7793l-4.5567,5.6631c1.1465.8594,2.2725,1.7432,3.3848,2.6387,3.0234,1.5547,6.0156,3.1826,8.9551,4.9433Z" transform="translate(-26.8813 -26.5858)"/><path class="b" d="M175.8838,468.2578c-.9336-.68-1.8965-1.3564-2.874-2.0351-1.3174-.7012-2.5821-1.3936-3.7617-2.0313-1.6153-.8662-3.1407-1.81-4.6455-2.7793l-4.5567,5.6631c1.1465.8594,2.2725,1.7432,3.3848,2.6387,3.0234,1.5547,6.0156,3.1826,8.9551,4.9433Z" transform="translate(-26.8813 -26.5858)"/><path class="b" d="M323.916,497.7988c1.7442-.37,3.5-.7842,5.252-1.3154.4922-.1465.998-.2959,1.5137-.4492-6.84,1.2617-14.1036,2.5654-21.3692,1.5635l-2.832-2.1973c-4.2774-4.3838-2.8477-11.4043-2.3731-17.1094,3.6739-14.9521,6.4922-29.9121,13.2129-43.6474q-5.1415,1.0224-10.4023,1.6953a144.8073,144.8073,0,0,1-15.15,31.872c-6.6338,3.0664-7.584-6.1543-11.3692-9.2216-3.6757-7.63-7.7529-14.8487-9.7265-22.4678q-5.18-.5978-10.2481-1.541a200.2664,200.2664,0,0,1,13.8067,45.94c.4726,4.833.95,10.0957-2.8389,13.5957-6.0312,3.5908-15.4707,2.7695-22.9062,2.002,1.542.331,3.06.663,4.5361,1.0185l-.7822,7.2549c-2.89-.4258-5.7793-.7578-8.668-1.02a195.5988,195.5988,0,0,1,23.0723,8.7344c13.2793,8.7734,16.5908,22.372,16.12,36.8505,4.2705.0577,9.373.0577,12.9219.0577-.9493-16.2276,4.6152-32.9649,21.2207-40.4063,4.3964-1.6777,8.83-3.2344,13.3281-4.6318-1.8457.18-3.6934.3857-5.541.6494Z" transform="translate(-26.8813 -26.5858)"/><path class="f" d="M253.0215,497.5371c-1.4756-.3555-2.9941-.6875-4.5361-1.0185-.76-.0791-1.5049-.1573-2.2168-.2295-1.8174-.19-3.5918-.4805-5.3428-.8067l-2.044,6.9766c1.5762.4043,3.1377.85,4.69,1.3125,2.8887.2627,5.7783.5947,8.668,1.02Z" transform="translate(-26.8813 -26.5858)"/><path class="b" d="M253.0215,497.5371c-1.4756-.3555-2.9941-.6875-4.5361-1.0185-.76-.0791-1.5049-.1573-2.2168-.2295-1.8174-.19-3.5918-.4805-5.3428-.8067l-2.044,6.9766c1.5762.4043,3.1377.85,4.69,1.3125,2.8887.2627,5.7783.5947,8.668,1.02Z" transform="translate(-26.8813 -26.5858)"/><path class="b" d="M401.1465,468.416c1.4648-1.0039,2.9355-2.06,4.35-3.2178.4453-.3613.9063-.7363,1.377-1.1171-5.7813,3.747-11.9336,7.67-18.9551,9.5019l-3.4629-.9443c-5.6348-2.4219-6.9942-9.4483-8.752-14.9053-2.3125-15.2637-5.4433-30.1885-4.4668-45.5059q-4.3827,2.943-8.9785,5.5811a144.8776,144.8776,0,0,1-1.8047,35.334c-4.9472,5.375-9.3476-2.7725-14.0273-4.1719-6.33-5.65-12.8906-10.7793-17.6289-17.0811q-4.9746,1.4093-10.0879,2.4727a200.7436,200.7436,0,0,1,30.4141,37.2393c2.2812,4.2724,4.7441,8.9668,2.5761,13.6425-4.3242,5.792-13.7656,8.6436-21.0175,10.79,1.955-.36,3.8789-.7168,5.7539-1.0156l2.0468,7.0117c-2.7851.6972-5.5254,1.499-8.248,2.3457a199.6489,199.6489,0,0,1,23.9648-.6895c15.625,3.0186,23.8809,14.3135,28.99,27.876,3.9609-1.5752,8.6894-3.542,11.955-4.8975-7.0761-14.6308-8.3457-32.2177,4.15-45.455q5.0244-4.7491,10.3243-9.1934c-1.6719.8916-3.34,1.81-4.9825,2.7822Z" transform="translate(-26.8813 -26.5858)"/><path class="g" d="M336.4356,495.0186c-1.875.2988-3.7989.6552-5.7539,1.0156-.5157.1533-1.0215.3027-1.5137.4492-1.752.5312-3.5078.9453-5.252,1.3154l.7774,7.2266c1.8476-.2637,3.6953-.47,5.541-.6494,2.7226-.8467,5.4629-1.6485,8.248-2.3457Z" transform="translate(-26.8813 -26.5858)"/><path class="b" d="M336.4356,495.0186c-1.875.2988-3.7989.6552-5.7539,1.0156-.5157.1533-1.0215.3027-1.5137.4492-1.752.5312-3.5078.9453-5.252,1.3154l.7774,7.2266c1.8476-.2637,3.6953-.47,5.541-.6494,2.7226-.8467,5.4629-1.6485,8.248-2.3457Z" transform="translate(-26.8813 -26.5858)"/><path class="b" d="M461.6777,410.6709c.834-1.3008,1.6485-2.6367,2.42-4.01-3.6856,5.3213-7.6914,10.8028-13.084,14.8868L447.4473,422c-6.1211-.0654-10.0723-6.0518-13.7832-10.42-7.9688-13.1817-16.5567-25.753-21.5078-40.2334q-2.9443,4.3755-6.1836,8.5254A145.43,145.43,0,0,1,417.8262,413.18c-2.5254,6.8574-9.711,1.0117-14.5664,1.5215-8.0489-2.83-16.1114-5.0557-22.91-9.0967q-4.09,3.2168-8.4062,6.1465a199.7466,199.7466,0,0,1,42.4629,22.8271c3.7578,3.0664,7.8086,6.45,7.6113,11.6074-1.7676,6.9522-9.2949,13.1534-15.1445,17.8956,1.7324-1.1221,3.4316-2.2295,5.1093-3.26l4.57,5.6914c-2.3789,1.7695-4.6738,3.6191-6.9335,5.5039a199.2883,199.2883,0,0,1,21.7636-9.75c15.58-3.1875,27.543,4.082,37.4473,14.6553,3.0508-2.9727,6.6719-6.5928,9.1777-9.0918-12.1426-10.8037-20.0449-26.5713-13.5683-43.5821,2.1191-4.73,4.3711-9.4,6.83-13.9834-1.3457,1.6163-2.67,3.2618-3.9433,4.9551Z" transform="translate(-26.8813 -26.5858)"/><path class="h" d="M411.9824,460.8213c-1.6777,1.03-3.3769,2.1377-5.1093,3.26-.4707.3808-.9317.7558-1.377,1.1171-1.4141,1.1582-2.8848,2.2139-4.35,3.2178l3.49,6.3828c1.6426-.9726,3.3106-1.8906,4.9825-2.7822,2.26-1.8848,4.5546-3.7344,6.9335-5.5039Z" transform="translate(-26.8813 -26.5858)"/><path class="b" d="M411.9824,460.8213c-1.6777,1.03-3.3769,2.1377-5.1093,3.26-.4707.3808-.9317.7558-1.377,1.1171-1.4141,1.1582-2.8848,2.2139-4.35,3.2178l3.49,6.3828c1.6426-.9726,3.3106-1.8906,4.9825-2.7822,2.26-1.8848,4.5546-3.7344,6.9335-5.5039Z" transform="translate(-26.8813 -26.5858)"/><path class="b" d="M495.1953,335.22c.2324-1.2861.4356-2.5908.6074-3.9033-1.2929,5.7666-2.9,11.6738-6.0058,16.9678l-3.1133,1.792c-5.6836,2.2646-11.6269-1.7471-16.7246-4.3633-8.7031-6.4063-17.5781-12.4121-25.5918-19.3887q-3.7383,2.4624-7.5547,4.8145a147.0464,147.0464,0,0,1,19.1192,22.1054c.3007,7.3135-8.5762,4.6612-12.8653,6.9805-8.4082.4736-16.6015,1.4717-24.3457.4053q-2.5254,4.5322-5.3476,8.8662a199.9936,199.9936,0,0,1,47.6015,4.8232c4.6367,1.4053,9.6836,2.9883,11.4707,7.82,1.1094,7.6631-4.3183,17.1006-7.9883,23.8956-.1152.2128-.2421.415-.3593.6259,1.4472-2.0908,2.8476-4.1582,4.26-6.1045l6.4,3.503c-1.2207,2.0439-2.3711,4.1181-3.4883,6.205A200.75,200.75,0,0,1,487.2539,393.42c13.1738-8.9179,26.9922-6.7754,40.2012-.8027,1.6777-3.917,3.6367-8.625,4.9941-11.918-15.3457-5.3174-28.6816-16.8691-29.2148-35.0556.1426-5.1094.42-10.2139.9258-15.3165-.7227,2.2833-1.4,4.6006-2,6.9434Z" transform="translate(-26.8813 -26.5858)"/><path class="i" d="M468.3574,400.5566c-1.4121,1.9463-2.8125,4.0137-4.26,6.1045-.7715,1.3731-1.586,2.709-2.42,4.01l5.6485,4.5488c1.2734-1.6933,2.5976-3.3388,3.9433-4.9551,1.1172-2.0869,2.2676-4.1611,3.4883-6.205Z" transform="translate(-26.8813 -26.5858)"/><path class="b" d="M468.3574,400.5566c-1.4121,1.9463-2.8125,4.0137-4.26,6.1045-.7715,1.3731-1.586,2.709-2.42,4.01l5.6485,4.5488c1.2734-1.6933,2.5976-3.3388,3.9433-4.9551,1.1172-2.0869,2.2676-4.1611,3.4883-6.205Z" transform="translate(-26.8813 -26.5858)"/><path class="b" d="M511.66,264.5762a286.5347,286.5347,0,0,1-36.5391,38.3867c1.8281-.3711,3.66-.7246,5.5-1.0469,4.832-.4814,10.1035-.9492,13.6,2.8291,3.9629,6.6582,2.5547,17.4522,1.7656,25.1309-.0468.4834-.1211.96-.1836,1.44.6954-3.1,1.3008-6.1592,1.9961-9.06l7.252.7774c-.3594,2.4306-.6484,4.8613-.8906,7.2929a202.4475,202.4475,0,0,1,8.06-20.8251c8.7637-13.2735,22.3516-16.5938,36.8281-16.1211.07-4.2686.07-9.3741.07-12.9205C534.7754,281.3008,520.0391,277.0405,511.66,264.5762Z" transform="translate(-26.8813 -26.5858)"/><path class="j" d="M497.7988,322.2568c-.6953,2.9-1.3007,5.96-1.9961,9.06-.1718,1.3125-.375,2.6172-.6074,3.9033l6.9649,2.0508c.6-2.3428,1.2773-4.66,2-6.9434.2422-2.4316.5312-4.8623.8906-7.2929Z" transform="translate(-26.8813 -26.5858)"/><path class="b" d="M497.7988,322.2568c-.6953,2.9-1.3007,5.96-1.9961,9.06-.1718,1.3125-.375,2.6172-.6074,3.9033l6.9649,2.0508c.6-2.3428,1.2773-4.66,2-6.9434.2422-2.4316.5312-4.8623.8906-7.2929Z" transform="translate(-26.8813 -26.5858)"/><path class="k" d="M422.1992,339.5264a143.7719,143.7719,0,0,1-268.4062-.0049c-2.586-1.3848-5.1543-2.7959-7.6914-4.2578a148.7019,148.7019,0,0,0,11.539,26.0205c.6778-.0469,1.3526-.0791,2.0323-.1358l-.6094-1.2031c.1445.0742.29.1318.4307.2178a25.7516,25.7516,0,0,0,4.9892,10.0976c-.4707-.0341-.9414-.0517-1.4121-.0781q.7032,1.0665,1.4209,2.1211c.165-.42.3437-.834.5049-1.2549a3.4217,3.4217,0,0,0-.4414-.9316l.4756-.251a25.2431,25.2431,0,0,0,6.2783,9.9317c.0244.0283.0537.0429.0693.0654a.2389.2389,0,0,1,.01.0429,2.6193,2.6193,0,0,0-.2324-.2167c-.1895.3085-.3555.6337-.5371.9472A150.4172,150.4172,0,0,0,196.21,406.042c.5654-.2822,1.1347-.55,1.6992-.8408l-1.0176-.8828c.1553.0166.32.0166.4776.039a29.0429,29.0429,0,0,0,2.3925,2.836,27.1511,27.1511,0,0,0,5.6153,4.3027,3.4768,3.4768,0,0,0-.38-.2871l.34-.4151a25.2057,25.2057,0,0,0,9.6065,6.7657.8007.8007,0,0,0,.0927.0283.1809.1809,0,0,1,.0176.03c-.0976-.03-.2021-.0723-.2978-.0957-.043.2656-.0625.5361-.1.8027a148.6059,148.6059,0,0,0,33.4619,13.8154c.374-.4306.7568-.8506,1.126-1.2871l-1.2872-.4277c.1553-.0449.3057-.1055.4581-.1436a26.2347,26.2347,0,0,0,3.3037,1.6934,27.2381,27.2381,0,0,0,7.3769,1.9228c-.2578.2237-.5058.4551-.7607.6817.6933.14,1.3916.2695,2.0888.4-.1435-.3282-.2763-.6621-.4218-.9893-.3409-.1894,10.5547,1.74,10.4541,1.7471.0625.2627.1484.5215.2158.7832a150.62,150.62,0,0,0,36.2461-.1826c.164-.4912.3379-.9756.4961-1.47,0,0,7.9824-.31,10.2636-.9687-.123.2461-.2363.4961-.3574.7432.4629-.0918.9258-.1846,1.3887-.2813-.2344-.2236-.4609-.457-.6953-.68a3.2127,3.2127,0,0,0-1.0254.0615l-.0625-.5429a25.2054,25.2054,0,0,0,11.5762-2.003c.0371-.0068.0527-.0332.0879-.0371a.1464.1464,0,0,1,.041.0039c-.0918.0479-.2071.0909-.2891.1407.1445.1992.3086.3867.4551.5839a148.5535,148.5535,0,0,0,33.4609-14.081c-.0351-.4834-.0547-.9649-.0957-1.4492l-1.2187.5976c.0761-.1455.1425-.292.2285-.43a25.8787,25.8787,0,0,0,10.1035-4.998c-.0156.2334-.0234.4648-.0391.6982q.3546-.2373.7071-.4765c-.2637-.1026-.5235-.2158-.7891-.3174a3.5034,3.5034,0,0,0-.9238.4443l-.2559-.4677a25.2051,25.2051,0,0,0,9.918-6.2666.8581.8581,0,0,0,.07-.0889H380c-.07.0889-.1484.1543-.2012.2373.18.11.3711.2051.5508.3125a150.3646,150.3646,0,0,0,25.6231-25.7324c-.2227-.4444-.4336-.8936-.6621-1.3369l-.8868,1.0224c.0137-.1582.0235-.32.045-.4844a27.6336,27.6336,0,0,0,2.8183-2.3964,26.8643,26.8643,0,0,0,4.6035-6.0879c.084.2548.18.5039.2657.7578.4121-.6123.8144-1.2315,1.2168-1.8506-.4063.0088-.8125.0029-1.2188.0137a3.3982,3.3982,0,0,0-.6816.7509l-.418-.332a25.2825,25.2825,0,0,0,6.7715-9.5928.2751.2751,0,0,0,.0215-.1025c.0136-.0088.0312-.0088.039-.0166-.039.1025-.0761.207-.1054.2959.31.05.6269.0742.9394.1172a148.6885,148.6885,0,0,0,11.1719-25.3623C427.3555,336.73,424.7852,338.1416,422.1992,339.5264Z" transform="translate(-26.8813 -26.5858)"/><path class="l" d="M205.6973,411.8271c-.34.1143-.6739.2383-1.0117.3555.3613.2422.7265.4776,1.09.7168-.0078-.334-.002-.668-.0107-1.0019C205.7432,411.8711,205.7188,411.8525,205.6973,411.8271Z" transform="translate(-26.8813 -26.5858)"/><path class="m" d="M160.6309,363.7031a27.0672,27.0672,0,0,1-1.1367-3.54c-.1407-.086-.2862-.1436-.4307-.2178l.6094,1.2031c-.68.0567-1.3545.0889-2.0323.1358q2.5635,4.55,5.4307,8.8984c.4707.0264.9414.044,1.4121.0781A27.0862,27.0862,0,0,1,160.6309,363.7031Z" transform="translate(-26.8813 -26.5858)"/><path class="n" d="M160.6309,363.7031a27.0672,27.0672,0,0,1-1.1367-3.54c-.1407-.086-.2862-.1436-.4307-.2178l.6094,1.2031c-.68.0567-1.3545.0889-2.0323.1358q2.5635,4.55,5.4307,8.8984c.4707.0264.9414.044,1.4121.0781A27.0862,27.0862,0,0,1,160.6309,363.7031Z" transform="translate(-26.8813 -26.5858)"/><path class="o" d="M205.377,411.4961a27.1511,27.1511,0,0,1-5.6153-4.3027,29.0429,29.0429,0,0,1-2.3925-2.836c-.1573-.0224-.3223-.0224-.4776-.039l1.0176.8828c-.5645.291-1.1338.5586-1.6992.8408q4.1264,3.2124,8.4756,6.1406c.3378-.1172.6718-.2412,1.0117-.3555A3.252,3.252,0,0,0,205.377,411.4961Z" transform="translate(-26.8813 -26.5858)"/><path class="p" d="M205.377,411.4961a27.1511,27.1511,0,0,1-5.6153-4.3027,29.0429,29.0429,0,0,1-2.3925-2.836c-.1573-.0224-.3223-.0224-.4776-.039l1.0176.8828c-.5645.291-1.1338.5586-1.6992.8408q4.1264,3.2124,8.4756,6.1406c.3378-.1172.6718-.2412,1.0117-.3555A3.252,3.252,0,0,0,205.377,411.4961Z" transform="translate(-26.8813 -26.5858)"/><path class="q" d="M171.3887,379.9062a.2389.2389,0,0,0-.01-.0429c-.0156-.0225-.0449-.0371-.0693-.0654a25.2431,25.2431,0,0,1-6.2783-9.9317l-.4756.251a3.4217,3.4217,0,0,1,.4414.9316c-.1612.4209-.34.835-.5049,1.2549q2.9238,4.2744,6.127,8.333c.1816-.3135.3476-.6387.5371-.9472A2.6193,2.6193,0,0,1,171.3887,379.9062Z" transform="translate(-26.8813 -26.5858)"/><path class="r" d="M171.3887,379.9062a.2389.2389,0,0,0-.01-.0429c-.0156-.0225-.0449-.0371-.0693-.0654a25.2431,25.2431,0,0,1-6.2783-9.9317l-.4756.251a3.4217,3.4217,0,0,1,.4414.9316c-.1612.4209-.34.835-.5049,1.2549q2.9238,4.2744,6.127,8.333c.1816-.3135.3476-.6387.5371-.9472A2.6193,2.6193,0,0,1,171.3887,379.9062Z" transform="translate(-26.8813 -26.5858)"/><path class="s" d="M251.7188,431.9756a26.2347,26.2347,0,0,1-3.3037-1.6934c-.1524.0381-.3028.0987-.4581.1436l1.2872.4277c-.3692.4365-.752.8565-1.126,1.2871q5.04,1.3917,10.2168,2.44c.2549-.2266.5029-.458.7607-.6817A27.2381,27.2381,0,0,1,251.7188,431.9756Z" transform="translate(-26.8813 -26.5858)"/><path class="t" d="M251.7188,431.9756a26.2347,26.2347,0,0,1-3.3037-1.6934c-.1524.0381-.3028.0987-.4581.1436l1.2872.4277c-.3692.4365-.752.8565-1.126,1.2871q5.04,1.3917,10.2168,2.44c.2549-.2266.5029-.458.7607-.6817A27.2381,27.2381,0,0,1,251.7188,431.9756Z" transform="translate(-26.8813 -26.5858)"/><path class="u" d="M215.0537,417.6182a.1809.1809,0,0,0-.0176-.03.8007.8007,0,0,1-.0927-.0283,25.2057,25.2057,0,0,1-9.6065-6.7657l-.34.4151a3.4768,3.4768,0,0,1,.38.2871c.1562.0908.3115.1934.4677.2793-.05.0166-.0976.0351-.1474.0517.0215.0254.0459.044.0674.07.0087.3339.0029.6679.0107,1.0019q4.3374,2.8623,8.8809,5.4258c.0371-.2666.0566-.5371.1-.8027C214.8516,417.5459,214.9561,417.5879,215.0537,417.6182Z" transform="translate(-26.8813 -26.5858)"/><path class="v" d="M215.0537,417.6182a.1809.1809,0,0,0-.0176-.03.8007.8007,0,0,1-.0927-.0283,25.2057,25.2057,0,0,1-9.6065-6.7657l-.34.4151a3.4768,3.4768,0,0,1,.38.2871c.1562.0908.3115.1934.4677.2793-.05.0166-.0976.0351-.1474.0517.0215.0254.0459.044.0674.07.0087.3339.0029.6679.0107,1.0019q4.3374,2.8623,8.8809,5.4258c.0371-.2666.0566-.5371.1-.8027C214.8516,417.5459,214.9561,417.5879,215.0537,417.6182Z" transform="translate(-26.8813 -26.5858)"/><path class="w" d="M205.6973,411.8271c.05-.0166.0976-.0351.1474-.0517-.1562-.0859-.3115-.1885-.4677-.2793A3.252,3.252,0,0,1,205.6973,411.8271Z" transform="translate(-26.8813 -26.5858)"/><path class="x" d="M205.6973,411.8271c.05-.0166.0976-.0351.1474-.0517-.1562-.0859-.3115-.1885-.4677-.2793A3.252,3.252,0,0,1,205.6973,411.8271Z" transform="translate(-26.8813 -26.5858)"/><path class="y" d="M205.6973,411.8271c.05-.0166.0976-.0351.1474-.0517-.1562-.0859-.3115-.1885-.4677-.2793A3.252,3.252,0,0,1,205.6973,411.8271Z" transform="translate(-26.8813 -26.5858)"/><path class="z" d="M307.4141,434.8691c-.1582.4942-.3321.9786-.4961,1.47q5.2617-.6651,10.4023-1.6953c.1211-.2471.2344-.4971.3574-.7432C315.3965,434.56,307.4141,434.8691,307.4141,434.8691Z" transform="translate(-26.8813 -26.5858)"/><path class="aa" d="M307.4141,434.8691c-.1582.4942-.3321.9786-.4961,1.47q5.2617-.6651,10.4023-1.6953c.1211-.2471.2344-.4971.3574-.7432C315.3965,434.56,307.4141,434.8691,307.4141,434.8691Z" transform="translate(-26.8813 -26.5858)"/><path class="ab" d="M260.002,433.9912c.1455.3272.2783.6611.4218.9893q5.067.9434,10.2481,1.541c-.0674-.2617-.1533-.5205-.2158-.7832C270.5567,435.7314,259.6611,433.8018,260.002,433.9912Z" transform="translate(-26.8813 -26.5858)"/><path class="ac" d="M260.002,433.9912c.1455.3272.2783.6611.4218.9893q5.067.9434,10.2481,1.541c-.0674-.2617-.1533-.5205-.2158-.7832C270.5567,435.7314,259.6611,433.8018,260.002,433.9912Z" transform="translate(-26.8813 -26.5858)"/><path class="ad" d="M364.6992,415.3916a26.6548,26.6548,0,0,1-3.5273,1.1357c-.086.1377-.1524.2842-.2285.43l1.2187-.5976c.041.4843.0606.9658.0957,1.4492q4.5968-2.6338,8.9785-5.5811c.0157-.2334.0235-.4648.0391-.6982A26.7728,26.7728,0,0,1,364.6992,415.3916Z" transform="translate(-26.8813 -26.5858)"/><path class="ae" d="M364.6992,415.3916a26.6548,26.6548,0,0,1-3.5273,1.1357c-.086.1377-.1524.2842-.2285.43l1.2187-.5976c.041.4843.0606.9658.0957,1.4492q4.5968-2.6338,8.9785-5.5811c.0157-.2334.0235-.4648.0391-.6982A26.7728,26.7728,0,0,1,364.6992,415.3916Z" transform="translate(-26.8813 -26.5858)"/><path class="af" d="M328.6309,431.165a.1464.1464,0,0,0-.041-.0039c-.0352.0039-.0508.03-.0879.0371a25.2054,25.2054,0,0,1-11.5762,2.003l.0625.5429a3.2127,3.2127,0,0,1,1.0254-.0615c.2344.2227.4609.4561.6953.68q5.1093-1.0663,10.0879-2.4727c-.1465-.1972-.3106-.3847-.4551-.5839C328.4238,431.2559,328.5391,431.2129,328.6309,431.165Z" transform="translate(-26.8813 -26.5858)"/><path class="ag" d="M328.6309,431.165a.1464.1464,0,0,0-.041-.0039c-.0352.0039-.0508.03-.0879.0371a25.2054,25.2054,0,0,1-11.5762,2.003l.0625.5429a3.2127,3.2127,0,0,1,1.0254-.0615c.2344.2227.4609.4561.6953.68q5.1093-1.0663,10.0879-2.4727c-.1465-.1972-.3106-.3847-.4551-.5839C328.4238,431.2559,328.5391,431.2129,328.6309,431.165Z" transform="translate(-26.8813 -26.5858)"/><path class="ah" d="M407.2871,376.6768a27.6336,27.6336,0,0,1-2.8183,2.3964c-.0215.1641-.0313.3262-.045.4844l.8868-1.0224c.2285.4433.4394.8925.6621,1.3369q3.2373-4.1485,6.1836-8.5254c-.086-.2539-.1817-.503-.2657-.7578A26.8643,26.8643,0,0,1,407.2871,376.6768Z" transform="translate(-26.8813 -26.5858)"/><path class="ai" d="M407.2871,376.6768a27.6336,27.6336,0,0,1-2.8183,2.3964c-.0215.1641-.0313.3262-.045.4844l.8868-1.0224c.2285.4433.4394.8925.6621,1.3369q3.2373-4.1485,6.1836-8.5254c-.086-.2539-.1817-.503-.2657-.7578A26.8643,26.8643,0,0,1,407.2871,376.6768Z" transform="translate(-26.8813 -26.5858)"/><path class="aj" d="M380,405.0547h-.0371a.8581.8581,0,0,1-.07.0889,25.2051,25.2051,0,0,1-9.918,6.2666l.2559.4677a3.5034,3.5034,0,0,1,.9238-.4443c.2656.1016.5254.2148.7891.3174q4.3125-2.9312,8.4062-6.1465c-.18-.1074-.3711-.2022-.5508-.3125C379.8516,405.209,379.93,405.1436,380,405.0547Z" transform="translate(-26.8813 -26.5858)"/><path class="ak" d="M380,405.0547h-.0371a.8581.8581,0,0,1-.07.0889,25.2051,25.2051,0,0,1-9.918,6.2666l.2559.4677a3.5034,3.5034,0,0,1,.9238-.4443c.2656.1016.5254.2148.7891.3174q4.3125-2.9312,8.4062-6.1465c-.18-.1074-.3711-.2022-.5508-.3125C379.8516,405.209,379.93,405.1436,380,405.0547Z" transform="translate(-26.8813 -26.5858)"/><path class="al" d="M417.8867,360.2168c-.0078.0078-.0254.0078-.039.0166a.2751.2751,0,0,1-.0215.1025,25.2825,25.2825,0,0,1-6.7715,9.5928l.418.332a3.3982,3.3982,0,0,1,.6816-.7509c.4063-.0108.8125-.0049,1.2188-.0137q2.8242-4.3315,5.3476-8.8662c-.3125-.043-.6289-.0674-.9394-.1172C417.8106,360.4238,417.8477,360.3193,417.8867,360.2168Z" transform="translate(-26.8813 -26.5858)"/><path class="am" d="M417.8867,360.2168c-.0078.0078-.0254.0078-.039.0166a.2751.2751,0,0,1-.0215.1025,25.2825,25.2825,0,0,1-6.7715,9.5928l.418.332a3.3982,3.3982,0,0,1,.6816-.7509c.4063-.0108.8125-.0049,1.2188-.0137q2.8242-4.3315,5.3476-8.8662c-.3125-.043-.6289-.0674-.9394-.1172C417.8106,360.4238,417.8477,360.3193,417.8867,360.2168Z" transform="translate(-26.8813 -26.5858)"/><path class="a" d="M133.1963,214.2954c-4.2832,2.3189-13.1631-.32-12.8594,6.9741a144.9943,144.9943,0,0,0,23.6846,26.2417,148.5911,148.5911,0,0,1,14.05-33.5659C150.169,212.78,141.7969,213.813,133.1963,214.2954Z" transform="translate(-26.8813 -26.5858)"/><path class="a" d="M412.8945,157.6992a145.2329,145.2329,0,0,0-33.5156,11.9517,150.3563,150.3563,0,0,1,25.9043,25.6006c4.0664-6.8262,6.3008-14.9146,9.127-22.99C413.9043,167.3989,419.752,160.2231,412.8945,157.6992Z" transform="translate(-26.8813 -26.5858)"/><path class="a" d="M421.7227,128.0791l-.4571-3.5659c-5.4609-7.2158-13.3964-11.94-20.1328-16.7437-5.7539-2.92-12.26-5.5722-17.832-4.7622-4.8359,1.79-6.42,6.8321-7.8223,11.48a199.7107,199.7107,0,0,0-4.8047,48.8032,2.17,2.17,0,0,0,.1524.1626c14.584-4.94,27.2148-13.5844,40.4765-21.6015C415.6777,138.144,421.6484,134.1968,421.7227,128.0791Z" transform="translate(-26.8813 -26.5858)"/><path class="a" d="M143.8848,327.9824a52.5051,52.5051,0,0,0-4.128,3.5117q3.1481,1.9219,6.3448,3.77Q144.9019,331.6631,143.8848,327.9824Z" transform="translate(-26.8813 -26.5858)"/><path class="a" d="M361.3887,157.5933c0-.0079-.0078-.0122-.0117-.0249.0976.0249.2089.0766.2968.1074,1.2832-8.0283.1993-16.5376-.2851-25.291-2.3281-4.2886.3262-13.1626-6.9688-12.8619a145.3209,145.3209,0,0,0-26.7675,24.28,148.7922,148.7922,0,0,1,41.4453,18.5625,26.0652,26.0652,0,0,0-7.6055-4.7329A.3573.3573,0,0,0,361.3887,157.5933Z" transform="translate(-26.8813 -26.5858)"/><path class="a" d="M448.709,229.75c1.3867-4.6782,9.5391-9.0684,4.16-14.03a145.81,145.81,0,0,0-34.9727-1.8232,148.5966,148.5966,0,0,1,13.9863,33.2778C438.0664,242.4526,443.1231,235.9946,448.709,229.75Z" transform="translate(-26.8813 -26.5858)"/><path class="a" d="M484.9766,224.478c-4.6817-2.1518-9.3711.2847-13.6407,2.5874A199.6482,199.6482,0,0,0,434.35,257.231c.1231.5835.2383,1.1694.3535,1.7558,13.6368,6.6011,28.4668,9.4,43.2832,13.0562,5.7207.4658,12.73,1.895,17.1153-2.3775l2.1933-2.8408c1.0215-7.3369-.3242-14.67-1.5918-21.5649C493.5567,238.0405,490.7051,228.7554,484.9766,224.478Z" transform="translate(-26.8813 -26.5858)"/><path class="a" d="M457.4668,200.4722c5.4512-1.7525,12.4863-3.1167,14.9043-8.7393l.9453-3.4687c-2.1582-8.2745-7.2265-15.3423-11.4765-22.0215-4.4434-5.3516-9.91-11.2129-15.94-12.7471-5.1465-.187-8.5449,3.86-11.6074,7.6138a199.7658,199.7658,0,0,0-22.834,42.5249q.457.6672.9082,1.3388C427.5313,205.87,442.3359,202.7773,457.4668,200.4722Z" transform="translate(-26.8813 -26.5858)"/><path class="a" d="M158.03,163.0957A145.0491,145.0491,0,0,0,169.85,196.3511,150.4237,150.4237,0,0,1,195.3887,170.6c-6.7871-4.0034-14.7979-6.2271-22.8028-9.0249C167.7373,162.0786,160.5479,156.2358,158.03,163.0957Z" transform="translate(-26.8813 -26.5858)"/><path class="a" d="M230.5977,126.6689c-4.6641-1.3872-9.0733-9.5317-14.0352-4.16a145.3114,145.3114,0,0,0-1.8057,35.1113,148.5876,148.5876,0,0,1,33.5293-13.8042C243.5391,137.49,236.957,132.3447,230.5977,126.6689Z" transform="translate(-26.8813 -26.5858)"/><path class="a" d="M142.1738,164.6855c-3.6992-4.37-7.6543-10.3413-13.7685-10.42l-3.5654.4556c-6.5987,4.9912-11.1123,12.0576-15.5069,18.38-3.19,6.0869-6.3877,13.2339-5.5107,19.2807,1.7773,4.8389,6.831,6.4131,11.4765,7.8174a200.1278,200.1278,0,0,0,48.2959,4.8237c.03-.0454.06-.0913.09-.1367C158.72,190.4224,150.14,177.8564,142.1738,164.6855Z" transform="translate(-26.8813 -26.5858)"/><path class="a" d="M201.3125,117.9087c-1.7451-5.4619-3.1182-12.4844-8.73-14.9058l-3.4638-.93c-7.8643,2.0425-14.627,6.7032-21.002,10.8091-5.7119,4.6509-12.6133,10.5948-14.2842,17.2022-.2109,5.1479,3.8545,8.542,7.6065,11.6181a200.8043,200.8043,0,0,0,42.3164,22.751q1.02-.6972,2.0547-1.375C206.7227,147.89,203.6231,133.0654,201.3125,117.9087Z" transform="translate(-26.8813 -26.5858)"/><path class="a" d="M429.8926,335.2676c2.33-1.3408,4.6328-2.7237,6.92-4.1289q-2.18-2.0581-4.4629-4.0362Q431.2335,331.2333,429.8926,335.2676Z" transform="translate(-26.8813 -26.5858)"/><path class="a" d="M273.06,97.7163c.4678-5.7173,1.8965-12.7417-2.374-17.1138l-2.84-2.2031c-8.44-1.167-16.8662.7754-24.63,2.1509-6.6474,2.0576-14.1689,4.8662-17.8935,9.8476-2.1494,4.6841.2988,9.3687,2.581,13.6475a200.7433,200.7433,0,0,0,30.5381,37.3574c.499-.1,1.001-.1928,1.502-.2881C266.5889,127.4429,269.3975,112.5742,273.06,97.7163Z" transform="translate(-26.8813 -26.5858)"/><path class="a" d="M285.3945,107.7852a145.046,145.046,0,0,0-15.1142,31.74,150.5108,150.5108,0,0,1,36.2471.0937c-1.959-7.6655-6.07-14.9326-9.7676-22.6128C292.9668,113.9229,292.0274,104.72,285.3945,107.7852Z" transform="translate(-26.8813 -26.5858)"/><path class="a" d="M346.8711,105.4907c2.627-5.0947,6.6309-11.0381,4.3633-16.7207l-1.791-3.1118A51.4424,51.4424,0,0,0,335.74,80.4263c-1.5957-.2813-3.2031-.5425-4.8535-.7139-7.6777-.7837-18.4726-2.1987-25.1289,1.7651-3.7793,3.4971-3.3086,8.77-2.8222,13.5923a199.3792,199.3792,0,0,0,13.9121,46.1988q3.2256.6306,6.3984,1.3984a27.4883,27.4883,0,0,0-5.9-1.3691C329.1387,131.0947,337.5859,118.1187,346.8711,105.4907Z" transform="translate(-26.8813 -26.5858)"/><path class="a" d="M434.7383,316.8311a102.5672,102.5672,0,0,0,9.6289,9.4931,285.914,285.914,0,0,0,30.7539-23.3613,198.8622,198.8622,0,0,0-40.1484,12.64Q434.8584,316.2178,434.7383,316.8311Z" transform="translate(-26.8813 -26.5858)"/><path class="a" d="M287.9942,144.28A143.7879,143.7879,0,0,0,153.793,339.5215a285.0828,285.0828,0,0,0,268.4062.0049A143.7876,143.7876,0,0,0,287.9942,144.28Z" transform="translate(-26.8813 -26.5858)"/><path class="a" d="M106.3,228.8037c-5.0937-2.624-11.03-6.6162-16.7168-4.3569l-3.1152,1.7876c-3.5332,6.0239-5.125,12.8408-6.5235,19.3432-.7949,7.6285-2.0244,18.0293,1.8262,24.5088,3.5049,3.7886,8.77,3.3169,13.5947,2.8384a200.0308,200.0308,0,0,0,45.9-13.7871c.0918-.4741.1787-.95.2763-1.4229C131.4248,246.2573,118.6953,237.9346,106.3,228.8037Z" transform="translate(-26.8813 -26.5858)"/><path class="a" d="M436.5137,305.3887c7.51-1.9951,14.6347-6.0147,22.1719-9.6407,3.082-3.7919,12.2988-4.7363,9.2363-11.3706a145.762,145.762,0,0,0-31.5547-15.0468,150.5123,150.5123,0,0,1,.1465,36.0581Z" transform="translate(-26.8813 -26.5858)"/><path class="a" d="M139.62,269.4072c-7.5556,1.9912-14.74,6.0332-22.32,9.689-3.0762,3.7788-12.2881,4.74-9.2119,11.3716a144.68,144.68,0,0,0,31.4023,14.99,150.4838,150.4838,0,0,1,.13-36.0508Z" transform="translate(-26.8813 -26.5858)"/><path class="a" d="M141.4639,317.9023c-.1455-.7148-.2783-1.4345-.4131-2.1523-12.4316-5.9775-25.8428-8.8271-39.3369-12.0508a285.8967,285.8967,0,0,0,30.6211,23.0869Q137.0444,322.49,141.4639,317.9023Z" transform="translate(-26.8813 -26.5858)"/><path class="b" d="M174.7022,107.8516c-1.4825,1.0122-2.9375,2.0586-4.3516,3.2177-.7119.5791-1.4629,1.1851-2.2334,1.813,6.375-4.1059,13.1377-8.7666,21.002-10.8091l3.4638.93c5.6113,2.4214,6.9844,9.4439,8.73,14.9058,2.3106,15.1567,5.41,29.9814,4.4981,45.17q4.3682-2.88,8.9462-5.458a145.3114,145.3114,0,0,1,1.8057-35.1113c4.9619-5.3721,9.3711,2.7724,14.0352,4.16,6.3593,5.6758,12.9414,10.8213,17.6884,17.1475q5.01-1.3762,10.1553-2.4136a200.7433,200.7433,0,0,1-30.5381-37.3574c-2.2822-4.2788-4.73-8.9634-2.581-13.6475,3.7246-4.9814,11.2461-7.79,17.8935-9.8476-.8359.1479-1.666.2915-2.4853.4219l-2.0479-7.0069c3.3692-.8457,6.6846-1.8242,9.9678-2.8808a192.0073,192.0073,0,0,1-25.8232.874c-15.6211-3.0186-23.8858-14.3135-29-27.8652-3.959,1.5727-8.68,3.5317-11.9414,4.8818,7.0761,14.6323,8.3349,32.2173-4.1495,45.4556q-5.0272,4.7482-10.3359,9.206c1.2783-.6963,2.5508-1.41,3.8086-2.1533Z" transform="translate(-26.8813 -26.5858)"/><path class="b" d="M114.5918,163.8569c-.9736,1.4952-1.9141,3.024-2.78,4.63-.7744,1.4326-1.6259,2.9873-2.4785,4.6138,4.3946-6.3228,8.9082-13.3892,15.5069-18.38l3.5654-.4556c6.1142.0791,10.0693,6.05,13.7685,10.42,7.9659,13.1709,16.5459,25.7369,21.5108,40.2007q2.934-4.38,6.165-8.5351A145.0491,145.0491,0,0,1,158.03,163.0957c2.5176-6.86,9.707-1.0171,14.5556-1.52,8.0049,2.7978,16.0157,5.0215,22.8028,9.0249q4.0708-3.2154,8.3672-6.1465a200.8043,200.8043,0,0,1-42.3164-22.751c-3.752-3.0761-7.8174-6.47-7.6065-11.6181,1.6709-6.6074,8.5723-12.5513,14.2842-17.2022-1.0332.6651-2.0566,1.3169-3.0723,1.9395l-4.5791-5.6807c2.38-1.7671,4.6758-3.6177,6.9346-5.5044a194.2655,194.2655,0,0,1-22.9355,10.3594c-15.586,3.1948-27.542-4.08-37.45-14.6494-3.0586,2.978-6.6739,6.59-9.1719,9.0981,12.1357,10.8,20.0351,26.5659,13.5625,43.5772-1.5889,3.5483-3.2481,7.0654-5.0137,10.5376.8613-1.0723,1.711-2.1577,2.5391-3.2622Z" transform="translate(-26.8813 -26.5858)"/><path class="an" d="M165.0449,114.8218c1.0157-.6226,2.0391-1.2744,3.0723-1.9395.77-.6279,1.5215-1.2339,2.2334-1.813,1.4141-1.1591,2.8691-2.2055,4.3516-3.2177l-3.4932-6.3682c-1.2578.7437-2.53,1.457-3.8086,2.1533-2.2588,1.8867-4.5547,3.7373-6.9346,5.5044Z" transform="translate(-26.8813 -26.5858)"/><path class="b" d="M165.0449,114.8218c1.0157-.6226,2.0391-1.2744,3.0723-1.9395.77-.6279,1.5215-1.2339,2.2334-1.813,1.4141-1.1591,2.8691-2.2055,4.3516-3.2177l-3.4932-6.3682c-1.2578.7437-2.53,1.457-3.8086,2.1533-2.2588,1.8867-4.5547,3.7373-6.9346,5.5044Z" transform="translate(-26.8813 -26.5858)"/><path class="b" d="M89.583,224.4468c5.6865-2.2593,11.6231,1.7329,16.7168,4.3569,12.3955,9.1309,25.125,17.4536,35.2412,28.9111q1.0635-5.1693,2.4805-10.2036A144.9943,144.9943,0,0,1,120.3369,221.27c-.3037-7.2939,8.5762-4.6552,12.8594-6.9741,8.6006-.4824,16.9727-1.5156,24.875-.35q2.6074-4.5651,5.5234-8.9224a200.1278,200.1278,0,0,1-48.2959-4.8237c-4.6455-1.4043-9.6992-2.9785-11.4765-7.8174-.877-6.0468,2.32-13.1938,5.5107-19.2807-.6152.8857-1.2285,1.7573-1.8447,2.6064l-6.4063-3.4931c1.8956-3.1656,3.65-6.39,5.31-9.6548A192.3884,192.3884,0,0,1,89.0078,181.104c-13.1719,8.9106-27.0039,6.769-40.2.7949-1.6845,3.92-3.6406,8.6411-4.9961,11.9121,15.35,5.336,28.6856,16.8765,29.2119,35.07-.1367,4.8276-.3867,9.6533-.84,14.4765.5869-1.91,1.1475-3.8349,1.6475-5.7837l6.9785,2.04c-.3281,1.7539-.6182,3.5322-.8018,5.3491-.02.2-.0429.4106-.0635.6147,1.3985-6.5024,2.99-13.3193,6.5235-19.3432Z" transform="translate(-26.8813 -26.5858)"/><path class="ao" d="M107.4883,175.7075c.6162-.8491,1.23-1.7207,1.8447-2.6064.8526-1.6265,1.7041-3.1812,2.4785-4.6138.8662-1.6064,1.8067-3.1352,2.78-4.63l-5.6611-4.5595c-.8281,1.1045-1.6778,2.19-2.5391,3.2622-1.66,3.2646-3.414,6.4892-5.31,9.6548Z" transform="translate(-26.8813 -26.5858)"/><path class="b" d="M107.4883,175.7075c.6162-.8491,1.23-1.7207,1.8447-2.6064.8526-1.6265,1.7041-3.1812,2.4785-4.6138.8662-1.6064,1.8067-3.1352,2.78-4.63l-5.6611-4.5595c-.8281,1.1045-1.6778,2.19-2.5391,3.2622-1.66,3.2646-3.414,6.4892-5.31,9.6548Z" transform="translate(-26.8813 -26.5858)"/><path class="b" d="M101.7139,303.6992c13.4941,3.2237,26.9053,6.0733,39.3369,12.0508q-.9536-5.0874-1.5606-10.292a144.68,144.68,0,0,1-31.4023-14.99c-3.0762-6.6314,6.1357-7.5928,9.2119-11.3716,7.58-3.6558,14.7647-7.6978,22.32-9.689q.6446-5.1929,1.6446-10.2695a200.0308,200.0308,0,0,1-45.8995,13.7871c-4.8251.4785-10.09.95-13.5947-2.8384-3.8506-6.48-2.6211-16.88-1.8262-24.5088-.4921,2.2857-.96,4.5332-1.4794,6.6929l-7.2549-.7851c.4013-2.7081.7187-5.4175.9736-8.128a196.8214,196.8214,0,0,1-7.9922,21.0337A286.4428,286.4428,0,0,0,101.7139,303.6992Z" transform="translate(-26.8813 -26.5858)"/><path class="ap" d="M80.81,239.6138l-6.9785-2.04c-.5,1.9488-1.0606,3.8741-1.6475,5.7837-.2549,2.71-.5723,5.42-.9736,8.128l7.2549.7851c.5195-2.16.9873-4.4072,1.4794-6.6929.0206-.2041.043-.4145.0635-.6147C80.1914,243.146,80.4815,241.3677,80.81,239.6138Z" transform="translate(-26.8813 -26.5858)"/><path class="b" d="M80.81,239.6138l-6.9785-2.04c-.5,1.9488-1.0606,3.8741-1.6475,5.7837-.2549,2.71-.5723,5.42-.9736,8.128l7.2549.7851c.5195-2.16.9873-4.4072,1.4794-6.6929.0206-.2041.043-.4145.0635-.6147C80.1914,243.146,80.4815,241.3677,80.81,239.6138Z" transform="translate(-26.8813 -26.5858)"/><path class="aq" d="M141.4639,317.9023q-4.4136,4.5894-9.1289,8.8838c2.45,1.6026,4.92,3.1787,7.4218,4.708a52.5051,52.5051,0,0,1,4.128-3.5117Q142.5078,323.0093,141.4639,317.9023Z" transform="translate(-26.8813 -26.5858)"/><path class="ar" d="M434.7383,316.8311q-1.0165,5.2031-2.3887,10.2714,2.2822,1.9791,4.4629,4.0362,3.82-2.3467,7.5547-4.8145A102.5672,102.5672,0,0,1,434.7383,316.8311Z" transform="translate(-26.8813 -26.5858)"/><path class="b" d="M504.1094,246.0132c.1816,1.8227.3848,3.6484.6465,5.4722l-7.2266.7744c-.3691-1.7432-.7812-3.5-1.3027-5.2427-.17-.5669-.3457-1.1577-.5235-1.7573,1.2676,6.8945,2.6133,14.228,1.5918,21.5649l-2.1933,2.8408c-4.3848,4.2725-11.3946,2.8433-17.1153,2.3775-14.8164-3.6563-29.6464-6.4551-43.2832-13.0562q1.005,5.1131,1.6641,10.3438a145.762,145.762,0,0,1,31.5547,15.0468c3.0625,6.6343-6.1543,7.5787-9.2363,11.3706-7.5372,3.626-14.6622,7.6456-22.1719,9.6407q-.5977,5.1621-1.541,10.2138a198.8622,198.8622,0,0,1,40.1484-12.64A286.5347,286.5347,0,0,0,511.66,264.5762a35.9633,35.9633,0,0,1-2.9629-5.3374Q506.207,252.6924,504.1094,246.0132Z" transform="translate(-26.8813 -26.5858)"/><path class="b" d="M468.1348,174.3613c-1.0176-1.4585-2.0606-2.9267-3.211-4.3393-.9609-1.1807-1.9921-2.4654-3.0839-3.7793,4.25,6.6792,9.3183,13.747,11.4765,22.0215l-.9453,3.4687c-2.418,5.6226-9.4531,6.9868-14.9043,8.7393-15.1309,2.3051-29.9355,5.3979-45.1,4.5009q2.9121,4.3572,5.5293,8.9234a145.81,145.81,0,0,1,34.9727,1.8232c5.3789,4.9619-2.7735,9.3521-4.16,14.03-5.5859,6.2446-10.6426,12.7026-16.8262,17.4243q1.4034,4.96,2.4668,10.0567a199.6482,199.6482,0,0,1,36.9863-30.1656c4.27-2.3027,8.959-4.7392,13.6407-2.5874,5.7285,4.2774,8.58,13.5625,10.7265,20.7818-.3457-1.8843-.6875-3.7373-.9726-5.5469l7.0019-2.05c.709,2.82,1.5215,5.5942,2.377,8.35a195.8953,195.8953,0,0,1-.69-24.023c3.0137-15.63,14.3028-23.8979,27.8575-28.9951-1.5743-3.9726-3.5274-8.6846-4.8887-11.9678-14.6153,7.09-32.207,8.356-45.4453-4.1367q-4.2218-4.4759-8.2305-9.1689.8789,1.5915,1.8047,3.164Z" transform="translate(-26.8813 -26.5858)"/><path class="as" d="M494.7305,239.7129c.2851,1.81.6269,3.6626.9726,5.5469.1778.6.3536,1.19.5235,1.7573.5215,1.7427.9336,3.5,1.3027,5.2427l7.2266-.7744c-.2617-1.8238-.4649-3.6495-.6465-5.4722-.8555-2.7559-1.668-5.53-2.377-8.35Z" transform="translate(-26.8813 -26.5858)"/><path class="b" d="M494.7305,239.7129c.2851,1.81.6269,3.6626.9726,5.5469.1778.6.3536,1.19.5235,1.7573.5215,1.7427.9336,3.5,1.3027,5.2427l7.2266-.7744c-.2617-1.8238-.4649-3.6495-.6465-5.4722-.8555-2.7559-1.668-5.53-2.377-8.35Z" transform="translate(-26.8813 -26.5858)"/><path class="b" d="M411.8281,113.7783c-1.5-.9687-3.039-1.9116-4.6289-2.7807-1.8535-1.002-3.9082-2.1333-6.0664-3.2281,6.7364,4.8037,14.6719,9.5279,20.1328,16.7437l.4571,3.5659c-.0743,6.1177-6.045,10.0649-10.42,13.772-13.2617,8.0171-25.8925,16.6611-40.4765,21.6015.041.0445.08.09.1211.1309q4.3271,2.8895,8.4316,6.0674a145.2329,145.2329,0,0,1,33.5156-11.9517c6.8575,2.5239,1.01,9.7,1.5157,14.562-2.8262,8.0757-5.0606,16.1641-9.127,22.99q3.2314,4.0781,6.1758,8.3828a199.7658,199.7658,0,0,1,22.834-42.5249c3.0625-3.7539,6.4609-7.8008,11.6074-7.6138,6.0293,1.5342,11.4961,7.3955,15.94,12.7471-.4356-.6846-.8653-1.3657-1.2793-2.043l5.6836-4.5767c2.0683,2.7872,4.2382,5.4722,6.4687,8.0987A191.4777,191.4777,0,0,1,461.99,144.1494c-3.1835-15.5976,4.084-27.5532,14.6543-37.46-2.9824-3.0576-6.5976-6.6728-9.1035-9.185-10.7968,12.1479-26.5664,20.0478-43.58,13.5722q-4.875-2.184-9.66-4.5747c.6934.5435,1.3828,1.0894,2.0879,1.6187Z" transform="translate(-26.8813 -26.5858)"/><path class="at" d="M460.5606,164.2c.414.6773.8437,1.3584,1.2793,2.043,1.0918,1.3139,2.123,2.5986,3.0839,3.7793,1.15,1.4126,2.1934,2.8808,3.211,4.3393l6.3828-3.4756q-.9288-1.5694-1.8047-3.164c-2.2305-2.6265-4.4-5.3115-6.4687-8.0987Z" transform="translate(-26.8813 -26.5858)"/><path class="b" d="M460.5606,164.2c.414.6773.8437,1.3584,1.2793,2.043,1.0918,1.3139,2.123,2.5986,3.0839,3.7793,1.15,1.4126,2.1934,2.8808,3.211,4.3393l6.3828-3.4756q-.9288-1.5694-1.8047-3.164c-2.2305-2.6265-4.4-5.3115-6.4687-8.0987Z" transform="translate(-26.8813 -26.5858)"/><path class="b" d="M336.2383,80.51c-.1641-.03-.332-.0547-.4981-.084a51.4424,51.4424,0,0,1,13.7032,5.2319l1.791,3.1118c2.2676,5.6826-1.7363,11.626-4.3633,16.7207-9.2852,12.628-17.7324,25.604-29.5254,35.8072a27.4883,27.4883,0,0,1,5.9,1.3691q2.2177.5353,4.4063,1.1357a145.3209,145.3209,0,0,1,26.7675-24.28c7.295-.3007,4.6407,8.5733,6.9688,12.8619.4844,8.7534,1.5683,17.2627.2851,25.291-.0879-.0308-.1992-.0825-.2968-.1074.0039.0127.0117.017.0117.0249a.3573.3573,0,0,1,.1035.039,26.0652,26.0652,0,0,1,7.6055,4.7329q.8438.5465,1.6777,1.105c.0176-.0054.0332-.0117.0508-.0176a2.17,2.17,0,0,1-.1524-.1626,199.7107,199.7107,0,0,1,4.8047-48.8032c1.4024-4.6474,2.9864-9.69,7.8223-11.48,5.5723-.81,12.0781,1.8423,17.832,4.7622-.2871-.2046-.5742-.4087-.8574-.6137l3.5059-6.398c3.4453,2.063,6.9609,3.9566,10.5195,5.7446A188.0389,188.0389,0,0,1,394.582,88.2031c-8.9121-13.185-6.7773-27.0063-.7968-40.2016-3.92-1.69-8.6446-3.6446-11.918-5.0015-5.33,15.3491-16.877,28.6816-35.0664,29.2124-5.5449-.16-11.09-.4653-16.6328-1.06,2.6621.87,5.373,1.6812,8.1191,2.3868Z" transform="translate(-26.8813 -26.5858)"/><path class="au" d="M400.2754,107.1558c.2832.205.57.4091.8574.6137,2.1582,1.0948,4.2129,2.2261,6.0664,3.2281,1.59.8691,3.1289,1.812,4.6289,2.7807l4.5606-5.6572c-.7051-.5293-1.3945-1.0752-2.0879-1.6187-3.5586-1.788-7.0742-3.6816-10.5195-5.7446Z" transform="translate(-26.8813 -26.5858)"/><path class="b" d="M400.2754,107.1558c.2832.205.57.4091.8574.6137,2.1582,1.0948,4.2129,2.2261,6.0664,3.2281,1.59.8691,3.1289,1.812,4.6289,2.7807l4.5606-5.6572c-.7051-.5293-1.3945-1.0752-2.0879-1.6187-3.5586-1.788-7.0742-3.6816-10.5195-5.7446Z" transform="translate(-26.8813 -26.5858)"/><path class="av" d="M370.8262,163.4526c-.0176.0059-.0332.0122-.0508.0176.0566.0381.1152.0752.1719.1133C370.9063,163.543,370.8672,163.4971,370.8262,163.4526Z" transform="translate(-26.8813 -26.5858)"/><path class="aw" d="M370.8262,163.4526c-.0176.0059-.0332.0122-.0508.0176.0566.0381.1152.0752.1719.1133C370.9063,163.543,370.8672,163.4971,370.8262,163.4526Z" transform="translate(-26.8813 -26.5858)"/><path class="b" d="M253.1162,77.85c-1.749.3657-3.5.78-5.2529,1.3052-1.4512.4336-3.0234.8931-4.6475,1.3955,7.7637-1.3755,16.19-3.3179,24.63-2.1509l2.84,2.2031c4.27,4.3721,2.8418,11.3965,2.374,17.1138-3.6621,14.8579-6.4707,29.7266-13.1162,43.3984q5.1093-.97,10.3369-1.5893a145.046,145.046,0,0,1,15.1142-31.74c6.6329-3.0655,7.5723,6.1377,11.3653,9.2211,3.6972,7.68,7.8086,14.9473,9.7676,22.6128q5.2177.6453,10.32,1.6495A199.3792,199.3792,0,0,1,302.9356,95.07c-.4864-4.8227-.9571-10.0952,2.8222-13.5923,6.6563-3.9638,17.4512-2.5488,25.1289-1.7651,1.65.1714,3.2578.4326,4.8535.7139-4.205-1.0542-8.4121-1.8286-12.33-2.7681l.7871-7.2622c1.99.2954,3.98.5435,5.9707.7568a210.4343,210.4343,0,0,1-19.6465-7.6714c-13.2852-8.7641-16.6-22.3569-16.127-36.8364-4.2656-.0576-9.373-.063-12.9218-.0576.9492,16.2183-4.6182,32.957-21.2139,40.4038-3.834,1.4614-7.6982,2.835-11.6084,4.0933q1.8413-.2066,3.6807-.4654Z" transform="translate(-26.8813 -26.5858)"/><path class="ax" d="M240.7305,80.9722c.8193-.13,1.6494-.274,2.4853-.4219,1.6241-.5024,3.1963-.9619,4.6475-1.3955,1.7529-.5254,3.5039-.9395,5.2529-1.3052l-.7851-7.23q-1.8384.2622-3.6807.4654c-3.2832,1.0566-6.5986,2.0351-9.9678,2.8808Z" transform="translate(-26.8813 -26.5858)"/><path class="b" d="M240.7305,80.9722c.8193-.13,1.6494-.274,2.4853-.4219,1.6241-.5024,3.1963-.9619,4.6475-1.3955,1.7529-.5254,3.5039-.9395,5.2529-1.3052l-.7851-7.23q-1.8384.2622-3.6807.4654c-3.2832,1.0566-6.5986,2.0351-9.9678,2.8808Z" transform="translate(-26.8813 -26.5858)"/><path class="ay" d="M323.41,77.6582c3.9179.94,8.125,1.7139,12.33,2.7681.1661.0293.334.0542.4981.084l2.0488-6.9707c-2.7461-.7056-5.457-1.5167-8.1191-2.3868-1.99-.2133-3.9805-.4614-5.9707-.7568Z" transform="translate(-26.8813 -26.5858)"/><path class="b" d="M323.41,77.6582c3.9179.94,8.125,1.7139,12.33,2.7681.1661.0293.334.0542.4981.084l2.0488-6.9707c-2.7461-.7056-5.457-1.5167-8.1191-2.3868-1.99-.2133-3.9805-.4614-5.9707-.7568Z" transform="translate(-26.8813 -26.5858)"/><path class="az" d="M142.3418,317.0059a3.5577,3.5577,0,0,0-.0068-.6387c-.4258-.2129-.8555-.4121-1.2842-.6172.1348.7178.2676,1.4375.4131,2.1523C141.7529,317.6006,142.0537,317.31,142.3418,317.0059Z" transform="translate(-26.8813 -26.5858)"/><path class="ba" d="M163.6846,204.8862c-.03.0454-.06.0913-.09.1367.0459-.0014.0918,0,.1377-.0014C163.7168,204.9761,163.7,204.9316,163.6846,204.8862Z" transform="translate(-26.8813 -26.5858)"/><path class="bb" d="M411.3906,204.9194c.3262.023.65.0347.9766.0537q-.4512-.6723-.9082-1.3388c-.0957.2431-.1992.4829-.293.7265A2.9409,2.9409,0,0,0,411.3906,204.9194Z" transform="translate(-26.8813 -26.5858)"/><path class="bc" d="M259.53,141.9751c.1426-.2852.2744-.5737.4131-.86-.501.0953-1.003.188-1.502.2881.1924.1841.3779.3765.5713.56A3.3925,3.3925,0,0,0,259.53,141.9751Z" transform="translate(-26.8813 -26.5858)"/><path class="bd" d="M141.3291,304.7607c.1.1319.2119.2432.31.3721a25.5621,25.5621,0,0,0,.6465,10.8652.1722.1722,0,0,0-.003-.02l.5323-.0507a25.2334,25.2334,0,0,0,2.0039,11.5634.1882.1882,0,0,0,.0429.09c0,.02-.0136.0322-.0136.041-.045-.09-.0811-.1973-.1319-.2871-.2832.206-.5517.4355-.831.6484q1.018,3.68,2.2168,7.2813c2.5371,1.4619,5.1054,2.873,7.6914,4.2578a143.7257,143.7257,0,1,1,268.4062.0049c2.586-1.3848,5.1563-2.7969,7.6934-4.2588q1.3447-4.0312,2.457-8.1651c-.41-.3545-.8086-.7187-1.2246-1.07l-.4375,1.2891c-.0449-.16-.0976-.3057-.1406-.4639a28.0825,28.0825,0,0,0,1.6973-3.2978,26.9112,26.9112,0,0,0,1.916-7.3741c.1894.2188.3867.4288.5781.6456q.12-.6138.2344-1.2286c-.4239.1856-.8555.3575-1.2793.5459a3.0638,3.0638,0,0,0-.3457.9688l-.52-.1533A25.09,25.09,0,0,0,435.42,305.501c0-.0371-.0078-.0625-.0117-.1055a.0512.0512,0,0,0,.0195-.0185,2.6888,2.6888,0,0,1,.0118.3076c.3613-.086.7148-.2,1.0742-.2959a150.5123,150.5123,0,0,0-.1465-36.0581c-.5977-.2-1.1875-.4131-1.791-.6065l.0918,1.356c-.1094-.1348-.209-.2486-.3106-.3726a26.5088,26.5088,0,0,0,.3008-3.6987,27.1781,27.1781,0,0,0-1.0508-7.5484c.3633.1822.7305.35,1.0957.5264-.1152-.5864-.23-1.1723-.3535-1.7558-.3047.3173-.6211.6245-.9238.9438a3.0633,3.0633,0,0,0,.0449,1.0225l-.5254.0581a25.4134,25.4134,0,0,0-2.0078-11.5742c-.0137-.043-.0371-.0557-.06-.0933.0078-.0059.0117-.0225.0214-.0366a2.834,2.834,0,0,1,.1329.2861c.291-.21.5664-.4448.8515-.6631a148.5966,148.5966,0,0,0-13.9863-33.2778c-.6035.042-1.2031.0693-1.8066.1191l.6,1.2261c-.1485-.0869-.2891-.1445-.4317-.23a26.493,26.493,0,0,0-1.1211-3.5283,27.3457,27.3457,0,0,0-3.5742-6.1733l-.4219.227a25.25,25.25,0,0,0-6.291-9.9136c-.0156-.041-.0488-.0449-.0762-.0717v-.0391c.0762.07.1622.1577.24.2148.0957-.1552.1777-.32.27-.476a150.3563,150.3563,0,0,0-25.9043-25.6006c-.3711.188-.748.3623-1.1191.5537l1.0136.8984c-.1562-.0244-.3164-.0351-.4843-.0551a28.1554,28.1554,0,0,0-2.3946-2.8194,27.0007,27.0007,0,0,0-5.1347-4.0356l-.1719.2026c-.1992-.2305-.4121-.4546-.623-.68-.0489-.0268-.0957-.0591-.1446-.0859.0176-.0054.0332-.0117.0489-.0171-.4043-.4258-.8262-.8433-1.2715-1.2476a148.7922,148.7922,0,0,0-41.4453-18.5625c-.1524.1778-.3086.3477-.461.5264l1.2949.437c-.166.0479-.3164.104-.4687.1411a26.8989,26.8989,0,0,0-3.3008-1.6924c-.4941-.205-.9824-.3774-1.4707-.5478q-3.1728-.7668-6.3984-1.3984c.1074.2431.205.4907.3125.7334a3.1345,3.1345,0,0,0,.9726.3476l-.1523.5112a25.3026,25.3026,0,0,0-11.459-2.58.362.362,0,0,0-.1113.0127c0-.0127-.0118-.0166-.02-.0206a3.0147,3.0147,0,0,1,.3106-.0195c-.0508-.2129-.1211-.4219-.1738-.6343a150.5108,150.5108,0,0,0-36.2471-.0937c-.1777.5351-.3692,1.062-.541,1.6006l1.3584-.0938c-.127.0938-.252.2139-.3731.3086a26.1132,26.1132,0,0,0-3.6982-.3037,27.4391,27.4391,0,0,0-6.9737.9053l.0538.499a25.2652,25.2652,0,0,0-11.5831,2.0059c-.0341.0122-.05.0288-.0869.042-.0088-.0079-.0214-.0079-.0341-.0132.0927-.0449.2021-.0884.2919-.1367-.13-.1783-.2763-.3462-.4082-.523a148.5876,148.5876,0,0,0-33.5293,13.8042c.0391.5591.0645,1.1162.1114,1.6768l1.21-.6089c-.0781.143-.14.29-.2168.4385a25.4682,25.4682,0,0,0-3.542,1.1269,27.068,27.068,0,0,0-6.5664,3.8579c.0254-.3447.0372-.6885.0577-1.0332q-1.0327.68-2.0547,1.375c.3115.1216.6191.2549.9316.375a3.6194,3.6194,0,0,0,.9307-.4433l.2588.4677a25.2369,25.2369,0,0,0-9.9336,6.2881c-.0264.0127-.0352.0449-.06.0674h-.0381c.0713-.0713.15-.1528.2139-.2275-.2188-.1343-.4492-.25-.6709-.3809a150.4237,150.4237,0,0,0-25.5391,25.751c.2315.4609.4483.9258.6856,1.3852l.8925-1.0224c-.0214.1591-.0273.3227-.0488.4829a29.0894,29.0894,0,0,0-2.83,2.3979,27.2884,27.2884,0,0,0-3.7412,4.6651l.4073.3291a25.1151,25.1151,0,0,0-6.7725,9.6045.246.246,0,0,0-.0264.0932.24.24,0,0,1-.0381.0127c.03-.0976.0772-.2012.1055-.3037-.1357-.0215-.2754-.03-.4121-.05a148.5911,148.5911,0,0,0-14.05,33.5659c.3769.3252.7422.66,1.123.982l.4307-1.2867c.042.15.1055.3033.1455.4522a28.37,28.37,0,0,0-1.6982,3.314,26.9888,26.9888,0,0,0-1.916,7.374c-.1856-.2144-.3789-.4195-.5655-.6319-.0976.4727-.1845.9488-.2763,1.4229.3447-.1514.6953-.29,1.039-.4434a3.1761,3.1761,0,0,0,.3418-.9692l.5156.1548a25.2384,25.2384,0,0,0-2.5781,11.4609.3531.3531,0,0,0,.0127.0947.0837.0837,0,0,0-.0322.0313c-.0039-.1055,0-.2173-.0127-.3169-.3125.0747-.62.1753-.9307.2573a150.4838,150.4838,0,0,0-.13,36.0508c.6446.2158,1.2813.4443,1.9317.6524Z" transform="translate(-26.8813 -26.5858)"/><path class="be" d="M205.7529,164.1118a27.068,27.068,0,0,1,6.5664-3.8579,25.4682,25.4682,0,0,1,3.542-1.1269c.0772-.149.1387-.2955.2168-.4385l-1.21.6089c-.0469-.5606-.0723-1.1177-.1114-1.6768q-4.5761,2.576-8.9462,5.458C205.79,163.4233,205.7783,163.7671,205.7529,164.1118Z" transform="translate(-26.8813 -26.5858)"/><path class="bf" d="M205.7529,164.1118a27.068,27.068,0,0,1,6.5664-3.8579,25.4682,25.4682,0,0,1,3.542-1.1269c.0772-.149.1387-.2955.2168-.4385l-1.21.6089c-.0469-.5606-.0723-1.1177-.1114-1.6768q-4.5761,2.576-8.9462,5.458C205.79,163.4233,205.7783,163.7671,205.7529,164.1118Z" transform="translate(-26.8813 -26.5858)"/><path class="bg" d="M259.53,141.9751a3.3925,3.3925,0,0,1-.5176-.0122c-.1934-.1836-.3789-.376-.5713-.56q-5.1445,1.0313-10.1553,2.4136c.1319.1768.2784.3447.4082.523-.09.0483-.1992.0918-.2919.1367.0127.0053.0253.0053.0341.0132.0371-.0132.0528-.03.0869-.042a25.2652,25.2652,0,0,1,11.5831-2.0059l-.0538-.499c-.19.0493-.3886.09-.5751.1426C259.4951,142.0483,259.5117,142.0117,259.53,141.9751Z" transform="translate(-26.8813 -26.5858)"/><path class="bh" d="M259.53,141.9751a3.3925,3.3925,0,0,1-.5176-.0122c-.1934-.1836-.3789-.376-.5713-.56q-5.1445,1.0313-10.1553,2.4136c.1319.1768.2784.3447.4082.523-.09.0483-.1992.0918-.2919.1367.0127.0053.0253.0053.0341.0132.0371-.0132.0528-.03.0869-.042a25.2652,25.2652,0,0,1,11.5831-2.0059l-.0538-.499c-.19.0493-.3886.09-.5751.1426C259.4951,142.0483,259.5117,142.0117,259.53,141.9751Z" transform="translate(-26.8813 -26.5858)"/><path class="bi" d="M163.7324,205.0215c.1241-.0029.2481-.0005.3711-.0039a3.0984,3.0984,0,0,0,.6885-.771l.0156.0132a27.2884,27.2884,0,0,1,3.7412-4.6651,29.0894,29.0894,0,0,1,2.83-2.3979c.0215-.16.0274-.3238.0488-.4829l-.8925,1.0224c-.2373-.4594-.4541-.9243-.6856-1.3852q-3.227,4.1542-6.165,8.5351C163.7,204.9316,163.7168,204.9761,163.7324,205.0215Z" transform="translate(-26.8813 -26.5858)"/><path class="bj" d="M163.7324,205.0215c.1241-.0029.2481-.0005.3711-.0039a3.0984,3.0984,0,0,0,.6885-.771l.0156.0132a27.2884,27.2884,0,0,1,3.7412-4.6651,29.0894,29.0894,0,0,1,2.83-2.3979c.0215-.16.0274-.3238.0488-.4829l-.8925,1.0224c-.2373-.4594-.4541-.9243-.6856-1.3852q-3.227,4.1542-6.165,8.5351C163.7,204.9316,163.7168,204.9761,163.7324,205.0215Z" transform="translate(-26.8813 -26.5858)"/><path class="bk" d="M196.06,170.981c-.0635.0747-.1426.1562-.2139.2275h.0381c.0244-.0225.0332-.0547.06-.0674a25.2369,25.2369,0,0,1,9.9336-6.2881l-.2588-.4677a3.6194,3.6194,0,0,1-.9307.4433c-.3125-.12-.62-.2534-.9316-.375q-4.2921,2.9319-8.3672,6.1465C195.61,170.7305,195.8408,170.8467,196.06,170.981Z" transform="translate(-26.8813 -26.5858)"/><path class="bl" d="M196.06,170.981c-.0635.0747-.1426.1562-.2139.2275h.0381c.0244-.0225.0332-.0547.06-.0674a25.2369,25.2369,0,0,1,9.9336-6.2881l-.2588-.4677a3.6194,3.6194,0,0,1-.9307.4433c-.3125-.12-.62-.2534-.9316-.375q-4.2921,2.9319-8.3672,6.1465C195.61,170.7305,195.8408,170.8467,196.06,170.981Z" transform="translate(-26.8813 -26.5858)"/><path class="bm" d="M142.1065,258.3467a26.9888,26.9888,0,0,1,1.916-7.374,28.37,28.37,0,0,1,1.6982-3.314c-.04-.1489-.1035-.3018-.1455-.4522l-.4307,1.2867c-.3808-.3223-.7461-.6568-1.123-.982q-1.4121,5.0333-2.4805,10.2036C141.7276,257.9272,141.9209,258.1323,142.1065,258.3467Z" transform="translate(-26.8813 -26.5858)"/><path class="bn" d="M142.1065,258.3467a26.9888,26.9888,0,0,1,1.916-7.374,28.37,28.37,0,0,1,1.6982-3.314c-.04-.1489-.1035-.3018-.1455-.4522l-.4307,1.2867c-.3808-.3223-.7461-.6568-1.123-.982q-1.4121,5.0333-2.4805,10.2036C141.7276,257.9272,141.9209,258.1323,142.1065,258.3467Z" transform="translate(-26.8813 -26.5858)"/><path class="bo" d="M163.7324,205.0215c-.0459.001-.0918,0-.1377.0014q-2.9121,4.3564-5.5234,8.9224c.1367.02.2764.0288.4121.05-.0283.1025-.0752.2061-.1055.3037a.24.24,0,0,0,.0381-.0127.246.246,0,0,1,.0264-.0932,25.1151,25.1151,0,0,1,6.7725-9.6045l-.4073-.3291c-.2988.47-.584.9419-.8457,1.416C163.8887,205.4561,163.8067,205.24,163.7324,205.0215Z" transform="translate(-26.8813 -26.5858)"/><path class="bp" d="M163.7324,205.0215c-.0459.001-.0918,0-.1377.0014q-2.9121,4.3564-5.5234,8.9224c.1367.02.2764.0288.4121.05-.0283.1025-.0752.2061-.1055.3037a.24.24,0,0,0,.0381-.0127.246.246,0,0,1,.0264-.0932,25.1151,25.1151,0,0,1,6.7725-9.6045l-.4073-.3291c-.2988.47-.584.9419-.8457,1.416C163.8887,205.4561,163.8067,205.24,163.7324,205.0215Z" transform="translate(-26.8813 -26.5858)"/><path class="bq" d="M164.1035,205.0176c-.123.0034-.247.001-.3711.0039.0743.2187.1563.4346.23.6543.2617-.4741.5469-.9463.8457-1.416l-.0156-.0132A3.0984,3.0984,0,0,1,164.1035,205.0176Z" transform="translate(-26.8813 -26.5858)"/><path class="br" d="M164.1035,205.0176c-.123.0034-.247.001-.3711.0039.0743.2187.1563.4346.23.6543.2617-.4741.5469-.9463.8457-1.416l-.0156-.0132A3.0984,3.0984,0,0,1,164.1035,205.0176Z" transform="translate(-26.8813 -26.5858)"/><path class="bs" d="M164.1035,205.0176c-.123.0034-.247.001-.3711.0039.0743.2187.1563.4346.23.6543.2617-.4741.5469-.9463.8457-1.416l-.0156-.0132A3.0984,3.0984,0,0,1,164.1035,205.0176Z" transform="translate(-26.8813 -26.5858)"/><path class="bt" d="M140.5635,269.4668a.0837.0837,0,0,1,.0322-.0313.3531.3531,0,0,1-.0127-.0947,25.2384,25.2384,0,0,1,2.5781-11.4609l-.5156-.1548a3.1761,3.1761,0,0,1-.3418.9692c-.3437.1534-.6943.292-1.039.4434q-.9932,5.0765-1.6446,10.2695c.3106-.082.6182-.1826.9307-.2573C140.5635,269.25,140.56,269.3613,140.5635,269.4668Z" transform="translate(-26.8813 -26.5858)"/><path class="bu" d="M140.5635,269.4668a.0837.0837,0,0,1,.0322-.0313.3531.3531,0,0,1-.0127-.0947,25.2384,25.2384,0,0,1,2.5781-11.4609l-.5156-.1548a3.1761,3.1761,0,0,1-.3418.9692c-.3437.1534-.6943.292-1.039.4434q-.9932,5.0765-1.6446,10.2695c.3106-.082.6182-.1826.9307-.2573C140.5635,269.25,140.56,269.3613,140.5635,269.4668Z" transform="translate(-26.8813 -26.5858)"/><path class="bv" d="M142.2852,315.998a25.5621,25.5621,0,0,1-.6465-10.8652c-.0977-.1289-.21-.24-.31-.3721l.0928,1.35c-.65-.2081-1.2871-.4366-1.9317-.6524q.6051,5.2032,1.5606,10.292c.4287.2051.8584.4043,1.2842.6172A3.6625,3.6625,0,0,0,142.2852,315.998Z" transform="translate(-26.8813 -26.5858)"/><path class="bw" d="M142.2852,315.998a25.5621,25.5621,0,0,1-.6465-10.8652c-.0977-.1289-.21-.24-.31-.3721l.0928,1.35c-.65-.2081-1.2871-.4366-1.9317-.6524q.6051,5.2032,1.5606,10.292c.4287.2051.8584.4043,1.2842.6172A3.6625,3.6625,0,0,0,142.2852,315.998Z" transform="translate(-26.8813 -26.5858)"/><path class="bx" d="M144.8477,327.6211c0-.0088.0136-.0205.0136-.041a.1882.1882,0,0,1-.0429-.09,25.2334,25.2334,0,0,1-2.0039-11.5634l-.5323.0507a.1722.1722,0,0,1,.003.02c.0351.13.0615.2647.0976.3926l-.0478-.0234a3.5577,3.5577,0,0,1,.0068.6387c-.2881.3037-.5889.5947-.8779.8964q1.0356,5.1064,2.4209,10.08c.2793-.2129.5478-.4424.831-.6484C144.7666,327.4238,144.8027,327.5312,144.8477,327.6211Z" transform="translate(-26.8813 -26.5858)"/><path class="by" d="M144.8477,327.6211c0-.0088.0136-.0205.0136-.041a.1882.1882,0,0,1-.0429-.09,25.2334,25.2334,0,0,1-2.0039-11.5634l-.5323.0507a.1722.1722,0,0,1,.003.02c.0351.13.0615.2647.0976.3926l-.0478-.0234a3.5577,3.5577,0,0,1,.0068.6387c-.2881.3037-.5889.5947-.8779.8964q1.0356,5.1064,2.4209,10.08c.2793-.2129.5478-.4424.831-.6484C144.7666,327.4238,144.8027,327.5312,144.8477,327.6211Z" transform="translate(-26.8813 -26.5858)"/><path class="bz" d="M142.2852,315.998a3.6625,3.6625,0,0,1,.05.3692l.0478.0234C142.3467,316.2627,142.32,316.1279,142.2852,315.998Z" transform="translate(-26.8813 -26.5858)"/><path class="ca" d="M142.2852,315.998a3.6625,3.6625,0,0,1,.05.3692l.0478.0234C142.3467,316.2627,142.32,316.1279,142.2852,315.998Z" transform="translate(-26.8813 -26.5858)"/><path class="cb" d="M142.2852,315.998a3.6625,3.6625,0,0,1,.05.3692l.0478.0234C142.3467,316.2627,142.32,316.1279,142.2852,315.998Z" transform="translate(-26.8813 -26.5858)"/><path class="cc" d="M432.2442,323.56a28.0825,28.0825,0,0,1-1.6973,3.2978c.043.1582.0957.3037.1406.4639l.4375-1.2891c.416.3516.8145.7158,1.2246,1.07q1.3682-5.0668,2.3887-10.2714c-.1914-.2168-.3887-.4268-.5781-.6456A26.9112,26.9112,0,0,1,432.2442,323.56Z" transform="translate(-26.8813 -26.5858)"/><path class="cd" d="M432.2442,323.56a28.0825,28.0825,0,0,1-1.6973,3.2978c.043.1582.0957.3037.1406.4639l.4375-1.2891c.416.3516.8145.7158,1.2246,1.07q1.3682-5.0668,2.3887-10.2714c-.1914-.2168-.3887-.4268-.5781-.6456A26.9112,26.9112,0,0,1,432.2442,323.56Z" transform="translate(-26.8813 -26.5858)"/><path class="ce" d="M435.4277,305.377a.0512.0512,0,0,1-.0195.0185c.0039.043.0117.0684.0117.1055a25.09,25.09,0,0,1-2.5918,11.4629l.52.1533a3.0638,3.0638,0,0,1,.3457-.9688c.4238-.1884.8554-.36,1.2793-.5459q.9434-5.0493,1.541-10.2138c-.3594.0957-.7129.21-1.0742.2959A2.6888,2.6888,0,0,0,435.4277,305.377Z" transform="translate(-26.8813 -26.5858)"/><path class="cf" d="M435.4277,305.377a.0512.0512,0,0,1-.0195.0185c.0039.043.0117.0684.0117.1055a25.09,25.09,0,0,1-2.5918,11.4629l.52.1533a3.0638,3.0638,0,0,1,.3457-.9688c.4238-.1884.8554-.36,1.2793-.5459q.9434-5.0493,1.541-10.2138c-.3594.0957-.7129.21-1.0742.2959A2.6888,2.6888,0,0,0,435.4277,305.377Z" transform="translate(-26.8813 -26.5858)"/><path class="cg" d="M434.6582,266.0088a26.5088,26.5088,0,0,1-.3008,3.6987c.1016.124.2012.2378.3106.3726l-.0918-1.356c.6035.1934,1.1933.4063,1.791.6065q-.65-5.231-1.6641-10.3438c-.3652-.1763-.7324-.3442-1.0957-.5264A27.1781,27.1781,0,0,1,434.6582,266.0088Z" transform="translate(-26.8813 -26.5858)"/><path class="ch" d="M434.6582,266.0088a26.5088,26.5088,0,0,1-.3008,3.6987c.1016.124.2012.2378.3106.3726l-.0918-1.356c.6035.1934,1.1933.4063,1.791.6065q-.65-5.231-1.6641-10.3438c-.3652-.1763-.7324-.3442-1.0957-.5264A27.1781,27.1781,0,0,1,434.6582,266.0088Z" transform="translate(-26.8813 -26.5858)"/><path class="ci" d="M411.3906,204.9194c.0684.1324.1407.2578.211.37l-.0391.021a27.3457,27.3457,0,0,1,3.5742,6.1733,26.493,26.493,0,0,1,1.1211,3.5283c.1426.0855.2832.1431.4317.23l-.6-1.2261c.6035-.05,1.2031-.0771,1.8066-.1191q-2.61-4.566-5.5293-8.9234C412.041,204.9541,411.7168,204.9424,411.3906,204.9194Z" transform="translate(-26.8813 -26.5858)"/><path class="cj" d="M411.3906,204.9194c.0684.1324.1407.2578.211.37l-.0391.021a27.3457,27.3457,0,0,1,3.5742,6.1733,26.493,26.493,0,0,1,1.1211,3.5283c.1426.0855.2832.1431.4317.23l-.6-1.2261c.6035-.05,1.2031-.0771,1.8066-.1191q-2.61-4.566-5.5293-8.9234C412.041,204.9541,411.7168,204.9424,411.3906,204.9194Z" transform="translate(-26.8813 -26.5858)"/><path class="ck" d="M431.0313,247.8374a2.834,2.834,0,0,0-.1329-.2861c-.01.0141-.0136.0307-.0214.0366.0234.0376.0468.05.06.0933a25.4134,25.4134,0,0,1,2.0078,11.5742l.5254-.0581a3.0633,3.0633,0,0,1-.0449-1.0225c.3027-.3193.6191-.6265.9238-.9438q-1.0664-5.0934-2.4668-10.0567C431.5977,247.3926,431.3223,247.627,431.0313,247.8374Z" transform="translate(-26.8813 -26.5858)"/><path class="cl" d="M431.0313,247.8374a2.834,2.834,0,0,0-.1329-.2861c-.01.0141-.0136.0307-.0214.0366.0234.0376.0468.05.06.0933a25.4134,25.4134,0,0,1,2.0078,11.5742l.5254-.0581a3.0633,3.0633,0,0,1-.0449-1.0225c.3027-.3193.6191-.6265.9238-.9438q-1.0664-5.0934-2.4668-10.0567C431.5977,247.3926,431.3223,247.627,431.0313,247.8374Z" transform="translate(-26.8813 -26.5858)"/><path class="cm" d="M370.32,163.63c.0489.0268.0957.0591.1446.0859-.0332-.0342-.0625-.0688-.0957-.103C370.3535,163.6182,370.3379,163.6245,370.32,163.63Z" transform="translate(-26.8813 -26.5858)"/><path class="cn" d="M370.32,163.63c.0489.0268.0957.0591.1446.0859-.0332-.0342-.0625-.0688-.0957-.103C370.3535,163.6182,370.3379,163.6245,370.32,163.63Z" transform="translate(-26.8813 -26.5858)"/><path class="co" d="M411.3906,204.9194a2.9409,2.9409,0,0,1-.2246-.5586c.0938-.2436.1973-.4834.293-.7265q-2.9472-4.3008-6.1758-8.3828c-.0918.1562-.1738.3208-.27.476-.0781-.0571-.1641-.145-.24-.2148v.0391c.0274.0268.0606.0307.0762.0717a25.25,25.25,0,0,1,6.291,9.9136l.4219-.227c-.1-.13-.1933-.27-.2949-.3975C411.3086,204.9155,411.35,204.9165,411.3906,204.9194Z" transform="translate(-26.8813 -26.5858)"/><path class="cp" d="M411.3906,204.9194a2.9409,2.9409,0,0,1-.2246-.5586c.0938-.2436.1973-.4834.293-.7265q-2.9472-4.3008-6.1758-8.3828c-.0918.1562-.1738.3208-.27.476-.0781-.0571-.1641-.145-.24-.2148v.0391c.0274.0268.0606.0307.0762.0717a25.25,25.25,0,0,1,6.291,9.9136l.4219-.227c-.1-.13-.1933-.27-.2949-.3975C411.3086,204.9155,411.35,204.9165,411.3906,204.9194Z" transform="translate(-26.8813 -26.5858)"/><path class="cq" d="M371.43,163.99l-.17.2032a27.0007,27.0007,0,0,1,5.1347,4.0356,28.1554,28.1554,0,0,1,2.3946,2.8194c.1679.02.3281.0307.4843.0551l-1.0136-.8984c.3711-.1914.748-.3657,1.1191-.5537q-4.1044-3.1743-8.4316-6.0674A4.3484,4.3484,0,0,0,371.43,163.99Z" transform="translate(-26.8813 -26.5858)"/><path class="cr" d="M371.43,163.99l-.17.2032a27.0007,27.0007,0,0,1,5.1347,4.0356,28.1554,28.1554,0,0,1,2.3946,2.8194c.1679.02.3281.0307.4843.0551l-1.0136-.8984c.3711-.1914.748-.3657,1.1191-.5537q-4.1044-3.1743-8.4316-6.0674A4.3484,4.3484,0,0,0,371.43,163.99Z" transform="translate(-26.8813 -26.5858)"/><path class="cs" d="M411.3906,204.9194c-.041-.0029-.082-.0039-.123-.0068.1016.127.1953.2671.2949.3975l.0391-.021C411.5313,205.1772,411.459,205.0518,411.3906,204.9194Z" transform="translate(-26.8813 -26.5858)"/><path class="ct" d="M411.3906,204.9194c-.041-.0029-.082-.0039-.123-.0068.1016.127.1953.2671.2949.3975l.0391-.021C411.5313,205.1772,411.459,205.0518,411.3906,204.9194Z" transform="translate(-26.8813 -26.5858)"/><path class="cu" d="M411.3906,204.9194c-.041-.0029-.082-.0039-.123-.0068.1016.127.1953.2671.2949.3975l.0391-.021C411.5313,205.1772,411.459,205.0518,411.3906,204.9194Z" transform="translate(-26.8813 -26.5858)"/><path class="cv" d="M324.7168,143.2148a26.8989,26.8989,0,0,1,3.3008,1.6924c.1523-.0371.3027-.0932.4687-.1411l-1.2949-.437c.1524-.1787.3086-.3486.461-.5264q-2.1885-.6006-4.4063-1.1357C323.7344,142.8374,324.2227,143.01,324.7168,143.2148Z" transform="translate(-26.8813 -26.5858)"/><path class="cw" d="M324.7168,143.2148a26.8989,26.8989,0,0,1,3.3008,1.6924c.1523-.0371.3027-.0932.4687-.1411l-1.2949-.437c.1524-.1787.3086-.3486.461-.5264q-2.1885-.6006-4.4063-1.1357C323.7344,142.8374,324.2227,143.01,324.7168,143.2148Z" transform="translate(-26.8813 -26.5858)"/><path class="cx" d="M371.0879,164.3955l.1719-.2026c-.2656-.1612-.5293-.3267-.7949-.4771C370.6758,163.9409,370.8887,164.165,371.0879,164.3955Z" transform="translate(-26.8813 -26.5858)"/><path class="cy" d="M371.0879,164.3955l.1719-.2026c-.2656-.1612-.5293-.3267-.7949-.4771C370.6758,163.9409,370.8887,164.165,371.0879,164.3955Z" transform="translate(-26.8813 -26.5858)"/><path class="cz" d="M369.0977,162.3652c.4453.4043.8672.8218,1.2715,1.2476.1367-.0454.2695-.0962.4062-.1426Q369.9405,162.9135,369.0977,162.3652Z" transform="translate(-26.8813 -26.5858)"/><path class="da" d="M369.0977,162.3652c.4453.4043.8672.8218,1.2715,1.2476.1367-.0454.2695-.0962.4062-.1426Q369.9405,162.9135,369.0977,162.3652Z" transform="translate(-26.8813 -26.5858)"/><path class="db" d="M370.9473,163.5835c-.0567-.0381-.1153-.0752-.1719-.1133-.1367.0464-.2695.0972-.4062.1426.0332.0342.0625.0688.0957.103.2656.15.5293.3159.7949.4771l.17-.2032A4.3484,4.3484,0,0,1,370.9473,163.5835Z" transform="translate(-26.8813 -26.5858)"/><path class="dc" d="M370.9473,163.5835c-.0567-.0381-.1153-.0752-.1719-.1133-.1367.0464-.2695.0972-.4062.1426.0332.0342.0625.0688.0957.103.2656.15.5293.3159.7949.4771l.17-.2032A4.3484,4.3484,0,0,1,370.9473,163.5835Z" transform="translate(-26.8813 -26.5858)"/><path class="dd" d="M370.9473,163.5835c-.0567-.0381-.1153-.0752-.1719-.1133-.1367.0464-.2695.0972-.4062.1426.0332.0342.0625.0688.0957.103.2656.15.5293.3159.7949.4771l.17-.2032A4.3484,4.3484,0,0,1,370.9473,163.5835Z" transform="translate(-26.8813 -26.5858)"/><path class="de" d="M306.7012,140.2534a3.0147,3.0147,0,0,0-.3106.0195c.0078.004.02.0079.02.0206a.362.362,0,0,1,.1113-.0127,25.3026,25.3026,0,0,1,11.459,2.58l.1523-.5112a3.1345,3.1345,0,0,1-.9726-.3476c-.1075-.2427-.2051-.49-.3125-.7334q-5.1006-.9976-10.32-1.6495C306.58,139.8315,306.65,140.0405,306.7012,140.2534Z" transform="translate(-26.8813 -26.5858)"/><path class="df" d="M306.7012,140.2534a3.0147,3.0147,0,0,0-.3106.0195c.0078.004.02.0079.02.0206a.362.362,0,0,1,.1113-.0127,25.3026,25.3026,0,0,1,11.459,2.58l.1523-.5112a3.1345,3.1345,0,0,1-.9726-.3476c-.1075-.2427-.2051-.49-.3125-.7334q-5.1006-.9976-10.32-1.6495C306.58,139.8315,306.65,140.0405,306.7012,140.2534Z" transform="translate(-26.8813 -26.5858)"/><path class="dg" d="M259.53,141.9751a3.0068,3.0068,0,0,0,.5185-.0693l.0039.0366a27.4391,27.4391,0,0,1,6.9737-.9053,26.1132,26.1132,0,0,1,3.6982.3037c.1211-.0947.2461-.2148.3731-.3086l-1.3584.0938c.1718-.5386.3633-1.0655.541-1.6006q-5.2251.6174-10.3369,1.5893C259.8047,141.4014,259.6729,141.69,259.53,141.9751Z" transform="translate(-26.8813 -26.5858)"/><path class="dh" d="M259.53,141.9751a3.0068,3.0068,0,0,0,.5185-.0693l.0039.0366a27.4391,27.4391,0,0,1,6.9737-.9053,26.1132,26.1132,0,0,1,3.6982.3037c.1211-.0947.2461-.2148.3731-.3086l-1.3584.0938c.1718-.5386.3633-1.0655.541-1.6006q-5.2251.6174-10.3369,1.5893C259.8047,141.4014,259.6729,141.69,259.53,141.9751Z" transform="translate(-26.8813 -26.5858)"/><path class="di" d="M259.53,141.9751c-.0186.0366-.0352.0732-.0527.11.1865-.0528.3847-.0933.5751-.1426l-.0039-.0366A3.0068,3.0068,0,0,1,259.53,141.9751Z" transform="translate(-26.8813 -26.5858)"/><path class="dj" d="M259.53,141.9751c-.0186.0366-.0352.0732-.0527.11.1865-.0528.3847-.0933.5751-.1426l-.0039-.0366A3.0068,3.0068,0,0,1,259.53,141.9751Z" transform="translate(-26.8813 -26.5858)"/><path class="dk" d="M259.53,141.9751c-.0186.0366-.0352.0732-.0527.11.1865-.0528.3847-.0933.5751-.1426l-.0039-.0366A3.0068,3.0068,0,0,1,259.53,141.9751Z" transform="translate(-26.8813 -26.5858)"/><path class="dl" d="M466.1758,287.9941A178.187,178.187,0,0,1,287.9922,466.1768c-98.3926,0-178.167-79.7793-178.167-178.1827a178.1753,178.1753,0,0,1,356.3506,0Z" transform="translate(-26.8813 -26.5858)"/><path class="a" d="M354.1016,205.2749c3.9961-.5234,7.99-6.541,7.99-6.541s5.9941-8.6343,19.4746-7.8491c13.4844.7851,16.7305,5.2329,17.4785,8.1108.75,2.8779,5.2442,3.6631,10.7364,3.4014a10.2355,10.2355,0,0,1,8.4882,4.186s4.7461.7847,8.24,1.57c3.4961.7847,0-3.14-.5-4.7094a13.4969,13.4969,0,0,1-.7481-6.5411c.4981-2.3544,9.4883,2.0933,13.2325,2.878,3.746.7851,2.498-3.14,2.498-3.14l2.4961-.5229-7.5176-11.5689c-.166-.2329-.3359-.4634-.5039-.6953l-1.2168,1.2754-3.4961-6.2793-2.9961-.2617-2.248,2.8779-2.2461-2.6162-3.4961-1.0469-4.7422-3.6626-3.7461-4.4482-1.748-1.0464,1.748,4.7095,4.4941,4.186s1.7481,3.6631,1.7481,4.7095-4.2441-.523-5.2441-.7847c-.9981-.2617-5.7422-4.4477-5.7422-4.4477L402.291,172.57l-5.9922-4.4477s-11.9843-7.5879-13.4824-7.5879-12.2344-3.6626-12.2344-3.6626l3.7442,3.6626,8.24,4.7094s7.74,2.6167,10.7363,3.9248a15.3516,15.3516,0,0,1,4.9942,3.6631l-1.4981.7847,2.2461,5.7559-4.7441-5.2325s-6.99-4.4482-11.2344-4.4482c-4.2461,0-9.9883-3.6626-11.4863-4.186s-6.2422-4.1861-6.2422-2.6163-4.4941,1.57-8.7383,3.4014-.5,6.541-.5,6.541l-2.9961,3.4009-1.248,4.7095,1.7461,5.7563,1,5.2325-.75,5.4946s-.25,1.8315-3.7442,2.0932c-3.4961.2613-5.9922,3.4009-6.2422,4.7095a.4215.4215,0,0,1-.0664.1494c.4375.2178,1.5743.3047,1.3125.6138a7.4058,7.4058,0,0,0-.77,1.0776l.0234-.01C346.1113,205.5366,350.1074,205.7983,354.1016,205.2749Z" transform="translate(-26.8813 -26.5858)"/><path class="a" d="M295.2363,298.5293a9.6489,9.6489,0,0,1-1.6875-1.7471,15.2347,15.2347,0,0,1-1.5429-3.792c.4355-6.0322-1.8926-10.2924-4.4883-13.84a2.4194,2.4194,0,0,0-2.1152-1.0249l-4.2276-4.812a6.31,6.31,0,0,0-2.7519,1.0156,13.7155,13.7155,0,0,1-4.1973,2.4712s3.209,3.46,5.1855,5.9307S281.8818,294.1,281.8818,294.1l4.9366,2.4717s1.7285,4.2,2.7168,4.4482,5.4336-.7422,6.6679-.7422c.8946,0,3.3321,1.5489,4.6172,2.4073.4551.0136.8106-.0684.9551-.3125-.0176-.0078-.0391-.0157-.0547-.0244Z" transform="translate(-26.8813 -26.5858)"/><path class="a" d="M435.4981,183.8208l-.0313.0327c.168.2319.3379.4624.5039.6953Z" transform="translate(-26.8813 -26.5858)"/><path class="a" d="M343.7988,204.3779c-.1445.2442-.5.3262-.955.313.49.3277.8164.5581.8164.5581l-3.5821.8272,1.7891,4.4311s.7441-3.8872,2.4746-4.438a7.4058,7.4058,0,0,1,.77-1.0776C345.3731,204.6826,344.2363,204.5957,343.7988,204.3779Z" transform="translate(-26.8813 -26.5858)"/><path class="a" d="M342.8438,204.6909a14.5111,14.5111,0,0,1-3.7227-.9858l.957,2.3711,3.5821-.8272S343.334,205.0186,342.8438,204.6909Z" transform="translate(-26.8813 -26.5858)"/><path class="dm" d="M467.58,287.7676A179.6988,179.6988,0,1,1,287.8828,108.0635,179.6945,179.6945,0,0,1,467.58,287.7676Z" transform="translate(-26.8813 -26.5858)"/><path class="dn" d="M201.3467,281.5527c3.998.6294,6.5723-1.4331,9.3916-2.5869l5.3125-2.7685a3.5325,3.5325,0,0,1,4.1885.87,3.4954,3.4954,0,0,0,4.1826-1.4458c.86-1.2149,2.2275-1.9639,3.4961-3.1172a21.9659,21.9659,0,0,0,3.86-.4717,21.2633,21.2633,0,0,1,10.9766,6.0137c5.3545,1.9258,9.59,5.3257,14.4424,8.1313,4.7353,1.4048,9.3183,3.1045,12.0556,6.3321.9278,3.0527,3.8809,4.0205,7.5118,4.039a51.8711,51.8711,0,0,1,8.3271.3653c2.2832,1.02,3.9922,2.7578,6.7949,3.7773a33.327,33.327,0,0,1,5.9825.793c2.8984,1.8662,6.1679,4.2187,8.3144,7.58a4.6037,4.6037,0,0,1-.1348,2.9169c-3.5117,4.7393-5.1211,11.2559-6.7675,17.9248a29.407,29.407,0,0,1-3.3711,8.66c-1.2246,1.9229-3.3633,2.8809-5.1953,4.19-2.7647,1.9805-6.1543,3.3955-8.0821,5.7647a138.717,138.717,0,0,0-6.4961,20.6982c-.4189,1.751-2.5146,2.5948-4.6933,2.46-4.5879.6914-7.3086,3.5762-8.2451,7.8594-.5577,2.5244-2.3985,3.8466-4.7461,4.6113a3.968,3.968,0,0,0-2.6719,3.9189c-.1006,2.1328-.4727,3.7149-1.5479,4.8106a2.9461,2.9461,0,0,0-.6972,3.082,22.975,22.975,0,0,1,3.77,9.2451c-1.084,2.8272,1.2588,4.541,2.6035,5.95a4.36,4.36,0,0,1,.94,4.4756,6.9218,6.9218,0,0,1-2.9453,1.0078,17.9521,17.9521,0,0,1-7.4853-.4414c-2.5-.7422-3.6553-3.0713-4.6455-5.44-1.4688-3.5313-3.3887-6.7969-4.3438-10.8594.0391-4.3828-2.5263-6.43-3.5849-9.5644a49.9264,49.9264,0,0,1-2.3555-15.8575,16.5146,16.5146,0,0,0-3.7373-7.5078,18.8644,18.8644,0,0,1-2.8154-4.4306,17.7719,17.7719,0,0,0-2.4141-11.8057l-1.0049-9.083c-1.5879-2.84-4.6533-4.0283-7.1924-5.7285a46.9578,46.9578,0,0,0-6.7715-3.3037c-3.166-2.33-4.4423-6.3916-5.8964-10.3213-.9932-2.6817-2.6475-4.7266-3.9395-7.0957-.37-3.3672.4346-5.8389.5772-8.8145.0556-1.5293.164-3.3828.2509-4.8916,1.3223-1.6943,2.5791-3.2363,2.9893-5.4492.582-3.166-.3926-5.667-2.0811-7.0918a4.4468,4.4468,0,0,0-2.5742-.8643c-4.8965-.373-8.2226-2.4379-11.4414-4.3891a11.63,11.63,0,0,1-2.957-1.9219,25.6142,25.6142,0,0,0-13.9922-8.4355c-4.7061-2.9947-10.7236-4.003-15.66-6.4029-3.5586-1.7324-5.2324-5.46-6.5127-9.7251-.6923-2.2924-1.9189-4.2646-4.417-4.917-3.1318-2.1909-5.15-5.72-5.5566-10.7431-.7959-2.6514-2.5391-4.3115-3.5312-6.6914a4.8228,4.8228,0,0,1-.0254-3.3482,22.5594,22.5594,0,0,0-.8535-14.9233,16.3634,16.3634,0,0,1-.0528-3.8594c.6592-4.5654,1.4785-8.4448,3.7266-11.3594a6.0086,6.0086,0,0,0,.5117-4.6718,8.268,8.268,0,0,1,3.0752-9.1075,4.1205,4.1205,0,0,0,1.6709-4.3222c1.18-2.4629,2.0195-4.7266,3.8213-6.0518.3515-1.8833,1.5342-3.1582,2.2949-4.6518,3.5059-6.8628,8.9912-12.3516,14.5078-17.2076,4.2188-3.7172,8.2471-7.0986,12.8115-10.4663l8.4727-6.5483,12.3525-7.5625a109.0175,109.0175,0,0,1,13.4619-6.5879,5.4509,5.4509,0,0,1,2.4834-.28c.8956,2.3657,2.5586,4.1631,3.82,6.6577a12.1843,12.1843,0,0,1,3.5654.0586,18.1637,18.1637,0,0,1,3.1211,1.7237c.5722.2778,1.4433-.1739,1.6728.3911a8.839,8.839,0,0,0,2.6143,3.1748,55.3987,55.3987,0,0,0,6.14,5.2094c2.4317-.0214,4.6895.7574,5.2823,2.316a6.6383,6.6383,0,0,1,.4218,1.3842,18.826,18.826,0,0,1-2.6894,12.1,1.5314,1.5314,0,0,1-1.6953.6127c-2.1387-.41-3.27-2.1186-4.1055-3.8515-.709-1.49-1.1611-3.354-2.5-4.2495a5.3362,5.3362,0,0,0-2.3066-.7051,2.5933,2.5933,0,0,0-2.6,2.1147,3.3354,3.3354,0,0,1-.8233,1.8946c-1.164,1.0644-3.2051,1.1054-4.4639,2.0835a3.701,3.701,0,0,0-1.2333,3.28c-1.043,4.05-4.9756,6.3657-9.7344,5.3588a10.2115,10.2115,0,0,0-8.1485,1.93c-.417,1.312.1856,2.6333-.1679,3.8682-.1387.5068-1.0684,1.8677-1.1885,2.375-.1846.7563.6123,1.1689,1.1885,1.4009a35.581,35.581,0,0,0,3.5449,1.4487l2.8672,3.5161c.3955.4214,1.2265.7915,1.6435.5757,2.9073-1.5225,6.3926-2.4434,8.7666-4.6616,2.2071-2.0547,3.251-5.3413,4.4268-8.4805.1768-.4526.7334-1.0049,1.0752-.9526a26.8313,26.8313,0,0,0,8.0019-.2217,7.1647,7.1647,0,0,1,5.9747,5.44c.5361,2.12.1494,4.9278.7734,6.916a30.1785,30.1785,0,0,0,4.0967,4.3189c.9121.3481,2.2353.4687,2.874,1.4043,1.7842,2.6387,1.5644,7.831-1.1992,9.2993a13.9334,13.9334,0,0,1-4.26,1.4419c-1.6514-.4712-3.4805-1.3159-5.7285-2.0747a17.5566,17.5566,0,0,0-8.1738,4.3437c-.3272.315-.6563,1.23.0752,1.44,1.46.4248,2.5732-.3921,3.8-.856a5.3906,5.3906,0,0,1,3.5185-.1289,1.4062,1.4062,0,0,1,.9092,1.3164,8.1735,8.1735,0,0,1-1.8818,4.8609c-2.2315,3.3466-5.9815,5.3217-9.99,7.0507-3.2754,3.3384-4.8291,8.6275-6.7314,13.32-3.2324,4.227-8.084,6.8369-13.3213,9.1045a3.2854,3.2854,0,0,0-1.54,4.3139,26.9642,26.9642,0,0,1,2.4609,5.6167,9.7023,9.7023,0,0,1-.1416,3.083,1.7726,1.7726,0,0,1-1.294,1.1563c-2.7568.0561-3.9257-2.0357-5.2519-3.6494-1.4512-1.7515-2.8193-3.6582-5.0195-4.7012-4.3164-1.0029-7.9141.687-10.8506,2.3784-1.88.4976-4.2334.6162-5.63,1.8809a3.1643,3.1643,0,0,0-.6533,2.185A18.2136,18.2136,0,0,1,172.3,251.5c-.5537.9678-.4336,2.3462-.5146,3.5947l.0468,3.8521a5.9258,5.9258,0,0,0,1.2354,2.562,2.2309,2.2309,0,0,0,2.6592.2744c1.8193-1.5039,3.0791-3.8408,5.8623-4.4746a6.3139,6.3139,0,0,0,2.81.2778c1.6651.253,2.2491,1.5254,2.7491,2.5991.873,1.8809.1406,4.0591-.4717,5.7222-.1885.5073-.2607,1.2861.1016,1.4971.93.5234,1.8974.0727,2.8046-.0571,1.8877-.25,2.4,1.2539,3.49,1.9419" transform="translate(-26.8813 -26.5858)"/><path class="dn" d="M309.5723,446.3115c4.41-.67,7.9414.5459,11.2871,1.1211,2.42-.791,4.0625-1.7471,6.291-2.1826,7.5977.082,13.0918,2.4023,18.6719,4.498a58.34,58.34,0,0,1,8.3281,4.2139c-2.7637,1.2744-5.5723,2.4961-8.2422,3.6172-13.0586,5.4941-28.6855,8.63-45.875,9.8672a177.2788,177.2788,0,0,1-77.38-11.3584,26.4618,26.4618,0,0,1-5.4785-2.3184,13.7711,13.7711,0,0,1,10.5615-6.0029l7.878-1.2256c5.21-.1865,9.0127,1.2852,13.1445,2.2666a25.36,25.36,0,0,1,6.4492.6221c5.0918-.5156,7.6524-3.7363,10.3779-6.6338a7.6819,7.6819,0,0,0,2.1192-4.1836c.6631-3.7324,3.2236-5.958,6.24-7.5029.2852-.1407,1.0987.0508.749,1.0029-.4257,1.1943-1.5439,2.8691-1.9736,4.7393a3.198,3.198,0,0,0,.6836,2.708c1.3486,1.7763,1.666,4.8457,2.19,6.6533a12.1149,12.1149,0,0,0,9.2344,4.6807c2.626.1054,4.7412.9619,7.1729,1.2568.664.082,1.49.1933,1.9375-.2227Z" transform="translate(-26.8813 -26.5858)"/><path class="dn" d="M273.0469,137.8779a12.2433,12.2433,0,0,1,.8769-2.86,4.8919,4.8919,0,0,0,.6954-4.4824,5.7407,5.7407,0,0,0-1.2149-1.7706c-1.36-.96-3.2207-1.6777-4.1172-3.2211.0977-1.6866,1.1612-2.8648,1.7559-4.313-2.5205-1.5845-5.086-3.1748-5.9863-6.11a.78.78,0,0,0-1.07-.5161c-.6679-.6035.1192-1.4248.2422-2.1836a4.4224,4.4224,0,0,1-1.9687.2749c-.1416.0195-.41.3628-.4317.3652-2.7656.4283-5.5986.6626-7.97,1.0044a5.2681,5.2681,0,0,1-3.8369.5113,1.2657,1.2657,0,0,0-1.208.3774c-1.876,2.1626-2.7949,5.2275-3.6973,8.3628-.0722.2183-.2949,1.1118.42.74.5508.3994.66,1.1621,1.2862,1.378.4238.1391,1.8437,0,2.2939.0795.3867.0835,1.1719,0,1.0664.5533a5.3275,5.3275,0,0,1-1.1347,2.5039c-1.335,1.4814-1.6309,4.18-.9239,6.4594a6.091,6.091,0,0,1,.252,4.065,4.0181,4.0181,0,0,0-.02,2.9526c.5176,1.28,1.5547,2.22,2.209,3.3828,1.0566,1.8086,2.1386,3.7632,4.0029,4.5664l9.9,3.125a1.3738,1.3738,0,0,0,1.3174-.625c.833-1.3925,1.7109-3.0322,2.7451-4.4462A54.7163,54.7163,0,0,0,273.0469,137.8779Z" transform="translate(-26.8813 -26.5858)"/><path class="dn" d="M205.02,248.6333c-1.7226-.2881-3.6386-.8755-5.4257-.2861a4.9525,4.9525,0,0,0-.6094.2138,8.9131,8.9131,0,0,0-4.124,4.3975c.5263,1.6938,2.2373,2.4355,4.0195,2.3838l12.9424-1.87c3.1972.5376,5.8056,1.5341,8.75,2.27a4.645,4.645,0,0,0,1.8828-.2041c.5635-.1162,1.2725-.5679,1.1826-1.19a5.3379,5.3379,0,0,0-2.3154-3.6348c-2.5713-.7642-5.6524-1.1348-8.3457-2.105Z" transform="translate(-26.8813 -26.5858)"/><path class="dn" d="M278.5313,144.2783a3.0047,3.0047,0,0,1,1.165-.2754,19.7868,19.7868,0,0,1,5.501,2.3428c.6406.39,1.2431,1.4429.51,2.06a12.9213,12.9213,0,0,1-2.875,1.6509H279.39a8.4258,8.4258,0,0,1-3.8409-2.2676A9.1774,9.1774,0,0,1,278.5313,144.2783Z" transform="translate(-26.8813 -26.5858)"/><path class="dn" d="M467.291,271.332a218,218,0,0,0-3.7656-24.8852,328.545,328.545,0,0,0-11.01-33.4961c-3.7656-8.0737-9.1464-17.0694-9.1464-17.0694l-2.4961.523s1.248,3.9248-2.4981,3.14c-3.7441-.7846-12.7344-5.2324-13.2324-2.8779a13.4952,13.4952,0,0,0,.748,6.541c.5,1.57,3.9961,5.4942.5,4.71-3.4941-.7852-8.24-1.57-8.24-1.57a10.2355,10.2355,0,0,0-8.4883-4.1861c-5.4922.2618-9.9863-.5234-10.7363-3.4013-.7481-2.878-3.9941-7.3257-17.4785-8.1109-13.4805-.7851-19.4746,7.8492-19.4746,7.8492s-3.9942,6.0175-7.99,6.541c-3.9941.5234-7.99.2617-9.7363.7846-.0078.0025-.0156.0074-.0234.01-1.57,2.6514-1.9317,6.5938-2.3672,10.45-1.5352,3.2988-3.4942,6.2022-3.3145,11.1484-.6191,4.2964-1.2109,8.7261-1.8789,12.8-.56,3.3457-.3086,7.3618-.2344,11,.086,4.8584,2.7051,7.37,6.1426,9.106l2.4356,2.5151c1.3418,1.82,2.123,4.1782,3.42,5.9815,2.5039,3.479,4.91,7.0742,10.2578,7.5415a27.701,27.701,0,0,0,10.8066-1.4282,21.3228,21.3228,0,0,0,9.7129-2.4053c3.9043-1.1529,6.8145-3.3477,11.7266-3.3809a4.9583,4.9583,0,0,1,2.0293.7232c3.375,1.5976,4.3027,5.7236,5.375,9.6255a13.7445,13.7445,0,0,0,3.9453,8.6474c1.8106,4.2251,2.3984,9.59,3.59,14.4663.7089,2.919,1.8808,7.3926-.1563,9.8057a6.3807,6.3807,0,0,0-1.418,4.8349l4.9414,11.8536c.1465,3.4257-1.1386,5.9716-1.7129,8.32A98.1474,98.1474,0,0,0,409.4609,353c-.2246,3.6768-1.5761,6.1055-2.2207,9.2969a2.288,2.288,0,0,0,1.0743,2.7011c6.4121-.41,12.4687-1.3173,19.207-1.7675a6.911,6.911,0,0,0,3.6992-1.2178c1.6094-3.42,3.4-6.8818,6.6192-8.7988a17.0588,17.0588,0,0,1,3.5683-7.0938c1.5938-1.7334,3.8027-2.8437,5.43-4.5869,1.1445-3.874,1.4805-8.4307,2.92-11.7852,1.5742-3.67,15.6367-16.8916,15.6367-16.8916C467.8164,300.3408,468.3711,285.4263,467.291,271.332Z" transform="translate(-26.8813 -26.5858)"/><path class="dn" d="M323.043,124.9434l6.4219,2.4707,3.2109,1.2363,4.6914,1.9766,1.7285-1.2354-3.2109-2.7187-7.4082-6.1783-4.94-.7407-4.6933-3.2129-3.7032-1.9775,2.7168-.2471,6.4219,3.2129,9.877,3.46,4.9394.4941,2.9649,2.4712,3.457.2475-1.4824,1.9766,5.68,4.9429-3.211,1.4824s-4.4433-1.4824-4.1972,0c.248,1.4829-7.4083,1.2358-7.4083,1.2358l-2.2226-1.73-.7422-1.73-3.7051-.9883-2.4687.9883,6.916,6.92-2.7168,3.4595.74,3.9541-1.2343,3.707-1.9766,2.9653-2.2227,2.9659a6.2325,6.2325,0,0,0-5.1855,1.977c-2.4707,2.4712,1.2344,2.4712,7.4082,4.2012S340.33,172.8862,340.33,172.8862a50.3528,50.3528,0,0,1-7.16,1.2359,65.5276,65.5276,0,0,0-10.0918.9614l-5.0293,3.68c-1,.167,3.1661,4.8335,4.5,6.5,1.1094,1.3877,1.25,3.0019,1.5,5,.334,2.667.3321,4.4731.4961,4.6972,1.6211,2.2168,5.0957.6968,4.9317,2.9595.3808,1.5781,2.1386,3.1108,2.7129,4.1924.2558.4648,4.4726-.374,4.6855-.2466l6.75,2.2515c.0156.0088.0371.0161.0547.0239a.4251.4251,0,0,0,.0664-.1494c.25-1.3086,2.7461-4.4483,6.2422-4.7095,3.4941-.2617,3.7441-2.0932,3.7441-2.0932l.75-5.4947-1-5.2324-1.7461-5.7563,1.2481-4.7095,2.9961-3.4009s-3.7442-4.7095.5-6.541,8.7383-1.8316,8.7383-3.4014,4.7441,2.0928,6.2421,2.6162,7.24,4.1861,11.4864,4.1861c4.2441,0,11.2344,4.4482,11.2344,4.4482l4.7441,5.2324L396.68,173.38l1.498-.7847a15.3489,15.3489,0,0,0-4.9941-3.6631c-2.9961-1.3081-10.7363-3.9248-10.7363-3.9248l-8.24-4.7095-3.7441-3.6626s10.7363,3.6626,12.2344,3.6626,13.4824,7.5879,13.4824,7.5879l5.9922,4.4478,4.2441,4.4477s4.7442,4.1861,5.7422,4.4478c1,.2617,5.2442,1.8315,5.2442.7847s-1.7481-4.7095-1.7481-4.7095l-4.4941-4.186-1.7481-4.7095,1.7481,1.0464,3.7461,4.4482,4.7421,3.6626,3.4961,1.0469,2.2461,2.6162,2.2481-2.8779,2.9961.2617,3.4961,6.2793,1.2168-1.2754a147.3384,147.3384,0,0,0-22.4043-25.0127c-.9864-.8511-1.7285-2.2363-3.1-2.6343,0,0-12.9239-11.1948-13.3711-11.6035a49.9593,49.9593,0,0,0-5.5059-4.4019c-22.2715-15.0893-48.1426-26.8017-81.334-30.6728a1.2176,1.2176,0,0,0-1.23.7471c-.2461.5566.2734,1.0258.2832,1.1694a16.285,16.285,0,0,1-1.43,8.4067,1.7452,1.7452,0,0,0,.1933,1.2144c.7149,1.2363,1.5215,2.3833,2.33,3.5278,2.3711,1.398,4.9219,2.6446,6.35,3.3042C319.3379,129.144,323.043,124.9434,323.043,124.9434Z" transform="translate(-26.8813 -26.5858)"/><polygon class="dn" points="369.835 152.504 364.607 153.027 365.13 155.905 372.189 157.737 372.712 155.644 369.835 152.504"/><polygon class="dn" points="347.025 150.883 351.47 156.638 355.13 157.685 354.869 154.545 350.164 149.574 347.81 149.313 347.025 150.883"/><polygon class="dn" points="342.152 143.063 345.291 146.987 347.121 146.987 344.244 142.539 342.152 143.063"/><polygon class="dn" points="290.867 127.392 296.218 123.919 300.31 122.357 298.894 120.447 297.949 119.058 294.644 118.537 290.552 116.801 287.56 115.238 285.671 115.065 284.884 112.287 281.894 112.287 279.376 110.898 278.117 112.634 280.949 114.717 281.894 116.975 283.154 118.19 285.515 117.669 288.347 118.017 289.607 119.926 287.246 119.579 289.292 121.489 289.292 123.225 291.654 124.093 290.867 127.392"/><polygon class="dn" points="281.937 118.737 284.289 120.249 286.47 121.929 287.31 123.777 283.785 125.961 280.595 125.793 280.595 123.105 278.916 122.265 278.412 120.921 279.419 120.585 279.419 119.241 281.937 118.737"/><polygon class="dn" points="204.021 226.869 204.021 229.554 197.981 230.896 202.678 232.238 210.061 232.238 215.43 234.252 212.075 228.883 209.39 225.527 204.021 226.869"/><path class="do" d="M124.38,343.2578c10.6387-1.24,15.61-2.4883,15.61-14.1933v-84.09c-9.9306-12.2324-12.7724-12.7773-15.0751-12.7773v-4.4327h37.4306l61.5586,75.7588h.3486V249.7676c0-10.6436-2.1279-16.503-16.4941-17.57v-4.4327h38.1377v4.4327c-12.7695,1.6064-13.8428,5.6845-13.8428,14.1923V350.8828h-4.957l-78.9434-96.1484h-.3593v70.9648c0,12.7715,3.73,16.1348,16.8574,17.5586v4.44H124.38Z" transform="translate(-26.8813 -26.5858)"/><path class="do" d="M330.49,263.4209c-3.1953-12.4121-13.84-32.8145-34.7675-32.8145-9.2246,0-18.9883,5.3223-18.9883,16.8536,0,9.5761,3.3711,13.4775,18.2812,20.9277l26.0723,12.9512a36.7252,36.7252,0,0,1,19.5195,32.6474c0,15.6094-11.3613,37.0821-43.9941,37.0821-16.8623,0-24.8447-6.0372-30.3379-6.0372-3.7344,0-4.62,3.1954-5.3262,6.0372h-5.1367V307.2461h5.1367c3.5508,17.916,13.8389,37.9668,36.3711,37.9668,21.2891,0,22.1758-17.5625,22.1758-19.875,0-11.8867-8.34-16.1387-19.8691-21.6465L287.74,298.02c-30.3427-14.5488-30.3427-29.8056-30.3427-37.9648,0-10.8213,5.5029-34.94,39.2158-34.94,14.1934,0,22.5215,5.8486,27.6738,5.8486,4.0762,0,4.959-2.6611,5.8477-6.0313h5.3261v38.4893Z" transform="translate(-26.8813 -26.5858)"/><path class="do" d="M351.0469,227.7646H451.6211v35.6563h-4.25c-3.9023-18.4463-8.6934-29.6172-39.2109-29.6172-9.5782,0-12.7676.707-12.7676,8.3359V283.292c21.998.3555,24.6621-12.2363,27.1465-26.4268h4.4277v59.961h-4.4277c-1.9492-14.5489-4.7852-27.4981-27.1465-27.4981v41.3281c0,11.7149,7.0976,12.0684,19.5176,12.6016v4.44H351.0469v-4.44c10.1152-1.0625,15.6055-1.5976,15.6055-12.6016V244.7939c0-11.7021-7.2754-12.0517-15.6055-12.5966Z" transform="translate(-26.8813 -26.5858)"/><path class="b" d="M288.001,106.353a181.6468,181.6468,0,1,1-181.65,181.6475A181.6471,181.6471,0,0,1,288.001,106.353m0,2.25a178.8275,178.8275,0,1,0,69.83,14.0967,178.2773,178.2773,0,0,0-69.83-14.0967Z" transform="translate(-26.8813 -26.5858)"/></svg>